<svg xmlns="http://www.w3.org/2000/svg" xmlns:xlink="http://www.w3.org/1999/xlink" width="15.978" height="16" viewBox="0 0 15.978 16">
  <defs>
    <clipPath id="clip-path">
      <rect id="Rectangle_1086" data-name="Rectangle 1086" width="15.978" height="16" fill="none"/>
    </clipPath>
  </defs>
  <g id="PHONE" transform="translate(7.989 8)">
    <g id="Group_251" data-name="Group 251" transform="translate(-7.989 -8)" clip-path="url(#clip-path)">
      <path id="Path_1367" data-name="Path 1367" d="M15.516,11.871V14.06a1.459,1.459,0,0,1-1.459,1.459h-.146a14.446,14.446,0,0,1-6.275-2.262A14.227,14.227,0,0,1,3.259,8.88,14.446,14.446,0,0,1,1,2.605,1.459,1.459,0,0,1,2.31,1H4.645A1.459,1.459,0,0,1,6.1,2.24a9.412,9.412,0,0,0,.511,2.043A1.459,1.459,0,0,1,6.25,5.815l-.876.948a11.674,11.674,0,0,0,4.378,4.378l.948-.948A1.459,1.459,0,0,1,12.233,9.9a9.412,9.412,0,0,0,2.043.511A1.459,1.459,0,0,1,15.516,11.871Z" transform="translate(-0.267 -0.27)" fill="none" stroke="#00378b" stroke-linecap="round" stroke-linejoin="round" stroke-width="2"/>
    </g>
  </g>
</svg>
