<?xml version="1.0" encoding="utf-8"?>
<!-- Generator: Adobe Illustrator 25.0.1, SVG Export Plug-In . SVG Version: 6.00 Build 0)  -->
<svg version="1.1" id="Layer_1" xmlns="http://www.w3.org/2000/svg" xmlns:xlink="http://www.w3.org/1999/xlink" x="0px" y="0px"
	 viewBox="0 0 50 50" style="enable-background:new 0 0 50 50;" xml:space="preserve">
<style type="text/css">
	.st0{fill:none;}
	.st1{clip-path:url(#SVGID_2_);}
	.st2{fill:#B22234;}
	.st3{fill:#FFFFFF;}
	.st4{fill:#3C3B6E;}
	.st5{fill:url(#united-states-of-america-flag-round-icon-32_2_);}
	.st6{fill:url(#united-states-of-america-flag-round-icon-32_3_);}
</style>
<pattern  width="32" height="32" patternUnits="userSpaceOnUse" id="pattern" viewBox="0 -32 32 32" style="overflow:visible;">
	<g>
		<rect y="-32" class="st0" width="32" height="32"/>
		
			<image style="overflow:visible;enable-background:new    ;" width="32" height="32" xlink:href="34BDC7102ABE1BFB.png"  transform="matrix(1 0 0 -1 0 0)">
		</image>
	</g>
</pattern>
<pattern  width="32" height="32" patternUnits="userSpaceOnUse" id="pattern_2" viewBox="0 -32 32 32" style="overflow:visible;">
	<g>
		<rect y="-32" class="st0" width="32" height="32"/>
		
			<image style="overflow:visible;enable-background:new    ;" width="32" height="32" xlink:href="34BDC7102ABE1BF9.png"  transform="matrix(1 0 0 -1 0 0)">
		</image>
	</g>
</pattern>
<g>
	<defs>
		<circle id="SVGID_1_" cx="25" cy="25" r="25"/>
	</defs>
	<clipPath id="SVGID_2_">
		<use xlink:href="#SVGID_1_"  style="overflow:visible;"/>
	</clipPath>
	<g class="st1">
		<rect x="0" class="st2" width="95" height="50"/>
		<g>
			<path d="M0,5.8h95 M95,13.5H0 M0,21.2h95 M95,28.8H0 M0,36.5h95 M95,44.2H0"/>
			<path class="st3" d="M95,46.2H0v-3.8h95V46.2z M95,38.5H0v-3.8h95V38.5z M95,30.8H0v-3.8h95V30.8z M95,23.1H0v-3.8h95V23.1z
				 M95,15.4H0v-3.8h95V15.4z M95,7.7H0V3.8h95V7.7z"/>
		</g>
		<rect x="0" class="st4" width="38" height="26.9"/>
		<g>
			<g id="s18">
				<g id="s9">
					<g id="s5">
						<g id="s4">
							<path id="s" class="st3" d="M3.2,1.2l0.9,2.8L1.7,2.2h2.9L2.3,3.9L3.2,1.2z"/>
							<g>
								<path id="s_1_" class="st3" d="M3.2,6.5l0.9,2.8L1.7,7.6h2.9L2.3,9.3L3.2,6.5z"/>
							</g>
							<g>
								<path id="s_2_" class="st3" d="M3.2,11.9l0.9,2.8L1.7,13h2.9l-2.4,1.7L3.2,11.9z"/>
							</g>
							<g>
								<path id="s_3_" class="st3" d="M3.2,17.3l0.9,2.8l-2.4-1.7h2.9l-2.4,1.7L3.2,17.3z"/>
							</g>
						</g>
						<g>
							<path id="s_4_" class="st3" d="M3.2,22.7l0.9,2.8l-2.4-1.7h2.9l-2.4,1.7L3.2,22.7z"/>
						</g>
					</g>
					<g>
						<g id="s4_1_">
							<path id="s_5_" class="st3" d="M6.3,3.8l0.9,2.8L4.9,4.9h2.9L5.4,6.6L6.3,3.8z"/>
							<g>
								<path id="s_6_" class="st3" d="M6.3,9.2L7.2,12l-2.4-1.7h2.9L5.4,12L6.3,9.2z"/>
							</g>
							<g>
								<path id="s_7_" class="st3" d="M6.3,14.6l0.9,2.8l-2.4-1.7h2.9l-2.4,1.7L6.3,14.6z"/>
							</g>
							<g>
								<path id="s_8_" class="st3" d="M6.3,20l0.9,2.8l-2.4-1.7h2.9l-2.4,1.7L6.3,20z"/>
							</g>
						</g>
					</g>
				</g>
				<g>
					<g id="s9_1_">
						<g id="s5_1_">
							<g id="s4_2_">
								<path id="s_9_" class="st3" d="M9.5,1.2l0.9,2.8L8,2.2H11L8.6,3.9L9.5,1.2z"/>
								<g>
									<path id="s_10_" class="st3" d="M9.5,6.5l0.9,2.8L8,7.6H11L8.6,9.3L9.5,6.5z"/>
								</g>
								<g>
									<path id="s_11_" class="st3" d="M9.5,11.9l0.9,2.8L8,13H11l-2.4,1.7L9.5,11.9z"/>
								</g>
								<g>
									<path id="s_12_" class="st3" d="M9.5,17.3l0.9,2.8L8,18.4H11l-2.4,1.7L9.5,17.3z"/>
								</g>
							</g>
							<g>
								<path id="s_13_" class="st3" d="M9.5,22.7l0.9,2.8L8,23.8H11l-2.4,1.7L9.5,22.7z"/>
							</g>
						</g>
						<g>
							<g id="s4_3_">
								<path id="s_14_" class="st3" d="M12.7,3.8l0.9,2.8l-2.4-1.7h2.9l-2.4,1.7L12.7,3.8z"/>
								<g>
									<path id="s_15_" class="st3" d="M12.7,9.2l0.9,2.8l-2.4-1.7h2.9L11.8,12L12.7,9.2z"/>
								</g>
								<g>
									<path id="s_16_" class="st3" d="M12.7,14.6l0.9,2.8l-2.4-1.7h2.9l-2.4,1.7L12.7,14.6z"/>
								</g>
								<g>
									<path id="s_17_" class="st3" d="M12.7,20l0.9,2.8l-2.4-1.7h2.9l-2.4,1.7L12.7,20z"/>
								</g>
							</g>
						</g>
					</g>
				</g>
			</g>
			<g>
				<g id="s18_1_">
					<g id="s9_2_">
						<g id="s5_2_">
							<g id="s4_4_">
								<path id="s_18_" class="st3" d="M15.8,1.2l0.9,2.8l-2.4-1.7h2.9l-2.4,1.7L15.8,1.2z"/>
								<g>
									<path id="s_19_" class="st3" d="M15.8,6.5l0.9,2.8l-2.4-1.7h2.9l-2.4,1.7L15.8,6.5z"/>
								</g>
								<g>
									<path id="s_20_" class="st3" d="M15.8,11.9l0.9,2.8L14.4,13h2.9l-2.4,1.7L15.8,11.9z"/>
								</g>
								<g>
									<path id="s_21_" class="st3" d="M15.8,17.3l0.9,2.8l-2.4-1.7h2.9l-2.4,1.7L15.8,17.3z"/>
								</g>
							</g>
							<g>
								<path id="s_22_" class="st3" d="M15.8,22.7l0.9,2.8l-2.4-1.7h2.9l-2.4,1.7L15.8,22.7z"/>
							</g>
						</g>
						<g>
							<g id="s4_5_">
								<path id="s_23_" class="st3" d="M19,3.8l0.9,2.8l-2.4-1.7h2.9l-2.4,1.7L19,3.8z"/>
								<g>
									<path id="s_24_" class="st3" d="M19,9.2l0.9,2.8l-2.4-1.7h2.9L18.1,12L19,9.2z"/>
								</g>
								<g>
									<path id="s_25_" class="st3" d="M19,14.6l0.9,2.8l-2.4-1.7h2.9l-2.4,1.7L19,14.6z"/>
								</g>
								<g>
									<path id="s_26_" class="st3" d="M19,20l0.9,2.8l-2.4-1.7h2.9l-2.4,1.7L19,20z"/>
								</g>
							</g>
						</g>
					</g>
					<g>
						<g id="s9_3_">
							<g id="s5_3_">
								<g id="s4_6_">
									<path id="s_27_" class="st3" d="M22.2,1.2l0.9,2.8l-2.4-1.7h2.9l-2.4,1.7L22.2,1.2z"/>
									<g>
										<path id="s_28_" class="st3" d="M22.2,6.5l0.9,2.8l-2.4-1.7h2.9l-2.4,1.7L22.2,6.5z"/>
									</g>
									<g>
										<path id="s_29_" class="st3" d="M22.2,11.9l0.9,2.8L20.7,13h2.9l-2.4,1.7L22.2,11.9z"/>
									</g>
									<g>
										<path id="s_30_" class="st3" d="M22.2,17.3l0.9,2.8l-2.4-1.7h2.9l-2.4,1.7L22.2,17.3z"/>
									</g>
								</g>
								<g>
									<path id="s_31_" class="st3" d="M22.2,22.7l0.9,2.8l-2.4-1.7h2.9l-2.4,1.7L22.2,22.7z"/>
								</g>
							</g>
							<g>
								<g id="s4_7_">
									<path id="s_32_" class="st3" d="M25.3,3.8l0.9,2.8l-2.4-1.7h2.9l-2.4,1.7L25.3,3.8z"/>
									<g>
										<path id="s_33_" class="st3" d="M25.3,9.2l0.9,2.8l-2.4-1.7h2.9L24.4,12L25.3,9.2z"/>
									</g>
									<g>
										<path id="s_34_" class="st3" d="M25.3,14.6l0.9,2.8l-2.4-1.7h2.9l-2.4,1.7L25.3,14.6z"/>
									</g>
									<g>
										<path id="s_35_" class="st3" d="M25.3,20l0.9,2.8l-2.4-1.7h2.9l-2.4,1.7L25.3,20z"/>
									</g>
								</g>
							</g>
						</g>
					</g>
				</g>
			</g>
			<g>
				<g id="s9_4_">
					<g id="s5_4_">
						<g id="s4_8_">
							<path id="s_36_" class="st3" d="M28.5,1.2l0.9,2.8L27,2.2H30l-2.4,1.7L28.5,1.2z"/>
							<g>
								<path id="s_37_" class="st3" d="M28.5,6.5l0.9,2.8L27,7.6H30l-2.4,1.7L28.5,6.5z"/>
							</g>
							<g>
								<path id="s_38_" class="st3" d="M28.5,11.9l0.9,2.8L27,13H30l-2.4,1.7L28.5,11.9z"/>
							</g>
							<g>
								<path id="s_39_" class="st3" d="M28.5,17.3l0.9,2.8L27,18.4H30l-2.4,1.7L28.5,17.3z"/>
							</g>
						</g>
						<g>
							<path id="s_40_" class="st3" d="M28.5,22.7l0.9,2.8L27,23.8H30l-2.4,1.7L28.5,22.7z"/>
						</g>
					</g>
					<g>
						<g id="s4_9_">
							<path id="s_41_" class="st3" d="M31.7,3.8l0.9,2.8l-2.4-1.7h2.9l-2.4,1.7L31.7,3.8z"/>
							<g>
								<path id="s_42_" class="st3" d="M31.7,9.2l0.9,2.8l-2.4-1.7h2.9L30.8,12L31.7,9.2z"/>
							</g>
							<g>
								<path id="s_43_" class="st3" d="M31.7,14.6l0.9,2.8l-2.4-1.7h2.9l-2.4,1.7L31.7,14.6z"/>
							</g>
							<g>
								<path id="s_44_" class="st3" d="M31.7,20l0.9,2.8l-2.4-1.7h2.9l-2.4,1.7L31.7,20z"/>
							</g>
						</g>
					</g>
				</g>
			</g>
			<g>
				<g id="s5_5_">
					<g id="s4_10_">
						<path id="s_45_" class="st3" d="M34.8,1.2l0.9,2.8l-2.4-1.7h2.9l-2.4,1.7L34.8,1.2z"/>
						<g>
							<path id="s_46_" class="st3" d="M34.8,6.5l0.9,2.8l-2.4-1.7h2.9l-2.4,1.7L34.8,6.5z"/>
						</g>
						<g>
							<path id="s_47_" class="st3" d="M34.8,11.9l0.9,2.8L33.4,13h2.9l-2.4,1.7L34.8,11.9z"/>
						</g>
						<g>
							<path id="s_48_" class="st3" d="M34.8,17.3l0.9,2.8l-2.4-1.7h2.9l-2.4,1.7L34.8,17.3z"/>
						</g>
					</g>
					<g>
						<path id="s_49_" class="st3" d="M34.8,22.7l0.9,2.8l-2.4-1.7h2.9l-2.4,1.7L34.8,22.7z"/>
					</g>
				</g>
			</g>
		</g>
	</g>
</g>
<pattern  id="united-states-of-america-flag-round-icon-32_2_" xlink:href="#pattern" patternTransform="matrix(0.375 0 0 -0.375 -5383.8149 -10801.0605)">
</pattern>
<circle id="united-states-of-america-flag-round-icon-32" class="st5" cx="115.1" cy="32.9" r="6"/>
<pattern  id="united-states-of-america-flag-round-icon-32_3_" xlink:href="#pattern_2" patternTransform="matrix(0.375 0 0 -0.375 -5371.5869 -10801.9932)">
</pattern>
<circle id="united-states-of-america-flag-round-icon-32_1_" class="st6" cx="114" cy="15.4" r="6"/>
</svg>
