<?xml version="1.0" standalone="no"?>
<!DOCTYPE svg PUBLIC "-//W3C//DTD SVG 1.1//EN" "http://www.w3.org/Graphics/SVG/1.1/DTD/svg11.dtd" >
<svg xmlns="http://www.w3.org/2000/svg" xmlns:xlink="http://www.w3.org/1999/xlink" version="1.1">
<metadata>
Created by FontForge 20170731 at Tue Jan 19 15:48:53 2016
 By Aleksey,,,
Copyright (c) 2016 by Gert Wiescher, Wiescher-Design, Munich, Germany, www.wiescher-design.de,. Alle Rechte vorbehalten.
</metadata>
<defs>
<font id="Noticia-Light" horiz-adv-x="545" >
  <font-face 
    font-family="Noticia"
    font-weight="300"
    font-stretch="normal"
    units-per-em="1000"
    panose-1="2 0 5 3 4 0 0 2 0 3"
    ascent="775"
    descent="-225"
    x-height="460"
    cap-height="730"
    bbox="-139 -288 1238 960"
    underline-thickness="20"
    underline-position="-153"
    unicode-range="U+000D-FB02"
  />
<missing-glyph horiz-adv-x="290" 
 />
    <glyph glyph-name=".notdef" horiz-adv-x="290" 
 />
    <glyph glyph-name=".null" horiz-adv-x="0" 
 />
    <glyph glyph-name="nonmarkingreturn" unicode="&#xd;" horiz-adv-x="290" 
 />
    <glyph glyph-name="NULL" horiz-adv-x="0" 
 />
    <glyph glyph-name="NULL" horiz-adv-x="0" 
 />
    <glyph glyph-name="space" unicode=" " horiz-adv-x="290" 
 />
    <glyph glyph-name="exclam" unicode="!" horiz-adv-x="160" 
d="M82 -22q-17 0 -29.5 12.5t-12.5 29.5t12.5 29.5t29.5 12.5t29.5 -12.5t12.5 -29.5t-12.5 -29.5t-29.5 -12.5zM51 730h60v-554h-60v554z" />
    <glyph glyph-name="quotedbl" unicode="&#x22;" horiz-adv-x="283" 
d="M59 730h62v-249h-52zM179 730h62v-249h-52z" />
    <glyph glyph-name="numbersign" unicode="#" horiz-adv-x="588" 
d="M142 209h-112v62h123l24 138h-116v62h127l38 214l60 -11l-36 -203h139l38 214l60 -11l-36 -203h107v-62h-118l-24 -138h111v-62h-122l-39 -222l-60 11l37 211h-139l-39 -222l-60 11zM354 271l24 138h-139l-24 -138h139z" />
    <glyph glyph-name="dollar" unicode="$" horiz-adv-x="496" 
d="M231 -9q-75 4 -130 44t-81 106l54 29q19 -53 61 -84t96 -36v308q-33 13 -63.5 29t-54.5 38.5t-38.5 54.5t-14.5 78q0 35 12.5 66t35.5 55t54 39t69 20v98h61v-99q28 -4 52.5 -15.5t44.5 -27t35.5 -35t24.5 -40.5l-53 -29q-17 35 -43 57t-61 30v-272q34 -14 67 -29.5
t59.5 -39t42.5 -57.5t16 -83q0 -38 -14 -72t-39 -60.5t-59 -44.5t-73 -25v-96h-61v93zM292 54q54 11 88.5 48t34.5 93q0 29 -10 50t-26.5 37.5t-39 28.5t-47.5 23v-280zM231 677q-22 -4 -42 -14t-35 -25t-23.5 -35t-8.5 -44q0 -26 8.5 -46t23 -35t34.5 -26.5t43 -21.5v247z
" />
    <glyph glyph-name="percent" unicode="%" horiz-adv-x="838" 
d="M212 294q-41 0 -76 14t-60.5 39.5t-40.5 59.5t-15 75v8q0 40 15 74.5t41 60t61 40t75 14.5t75.5 -14.5t61 -39.5t40.5 -60t15 -75v-8q0 -40 -15 -74t-41 -59.5t-61 -40t-75 -14.5zM212 342q30 0 56 10.5t45.5 29.5t31 44.5t11.5 55.5v8q0 30 -11.5 56t-31 44.5
t-45.5 29.5t-56 11t-56.5 -11t-46 -29.5t-30.5 -44.5t-11 -56v-8q0 -30 11 -55.5t30.5 -44.5t46 -29.5t56.5 -10.5zM208 9l434 744l36 -19l-434 -743zM626 -10q-41 0 -76 14t-60.5 39.5t-40.5 59.5t-15 75v8q0 40 15 74.5t41 60t61 40t75 14.5t75.5 -14.5t61 -39.5t40.5 -60
t15 -75v-8q0 -40 -15 -74t-41 -59.5t-61 -40t-75 -14.5zM626 38q30 0 56 10.5t45.5 29.5t31 44.5t11.5 55.5v8q0 30 -11.5 56t-31 44.5t-45.5 29.5t-56 11t-56.5 -11t-46 -29.5t-30.5 -44.5t-11 -56v-8q0 -30 11 -55.5t30.5 -44.5t46 -29.5t56.5 -10.5z" />
    <glyph glyph-name="ampersand" unicode="&#x26;" horiz-adv-x="637" 
d="M269 -10q-50 0 -93.5 19.5t-76 53.5t-51.5 78t-19 94q0 72 40 129.5t109 81.5q-42 21 -59 54t-17 73q0 35 13 65.5t35.5 53t53 35.5t65.5 13q34 0 61.5 -10t49 -26.5t36 -39t23.5 -47.5l-56 -23q-13 39 -40.5 62.5t-73.5 23.5q-22 0 -41.5 -8.5t-34 -23t-23 -34
t-8.5 -41.5q0 -44 30 -72.5t73 -30.5h51l-30 -60h-24q-36 0 -67.5 -13.5t-55 -36.5t-37 -55.5t-13.5 -69.5q0 -38 14 -71.5t38.5 -58.5t57.5 -40t71 -15q37 0 69.5 14.5t57 40t39 58.5t14.5 71h-92v61h259l-30 -61h-77q0 -50 -19.5 -94t-52 -77.5t-76.5 -53t-93 -19.5z" />
    <glyph glyph-name="quotesingle" unicode="'" horiz-adv-x="156" 
d="M49 730h62v-249h-52z" />
    <glyph glyph-name="parenleft" unicode="(" horiz-adv-x="245" 
d="M259 -122q-47 38 -90 88.5t-76 113t-53 138t-20 162.5q0 88 20 163t53 138t76 113.5t90 88.5l37 -43q-48 -39 -88 -88t-68.5 -107t-44 -124t-15.5 -141q0 -74 15.5 -140.5t44 -124t68.5 -106.5t88 -88l-37 -43v0z" />
    <glyph glyph-name="parenright" unicode=")" horiz-adv-x="245" 
d="M-50 -79q48 39 87.5 88t68 106.5t44.5 124t16 140.5q0 75 -16 141t-44.5 124t-68 107t-87.5 88l37 43q47 -38 90 -88.5t76 -113.5t53 -138t20 -163q0 -87 -20 -162.5t-53 -138t-76 -113t-90 -88.5z" />
    <glyph glyph-name="asterisk" unicode="*" horiz-adv-x="384" 
d="M166 553l-88 -66l-33 57l95 55l-101 43l33 57l95 -55l-14 109h66v-109l88 66l33 -57l-95 -55l101 -43l-33 -57l-95 55l14 -109h-66v109z" />
    <glyph glyph-name="plus" unicode="+" horiz-adv-x="580" 
d="M260 204h-205v61h205v195h61v-195h204v-61h-204v-204h-61v204z" />
    <glyph glyph-name="comma" unicode="," horiz-adv-x="111" 
d="M49 72l62 -8l-29 -248l-51 6z" />
    <glyph glyph-name="hyphen" unicode="-" horiz-adv-x="309" 
d="M30 266h249v-62h-249v62z" />
    <glyph glyph-name="period" unicode="." horiz-adv-x="169" 
d="M84 -20q-19 0 -32 13t-13 32t13 32t32 13t32 -13t13 -32t-13 -32t-32 -13z" />
    <glyph glyph-name="slash" unicode="/" horiz-adv-x="560" 
d="M37 -98l414 964l56 -24l-414 -964z" />
    <glyph glyph-name="zero" unicode="0" horiz-adv-x="580" 
d="M290 -10q-51 0 -94.5 18.5t-76 51t-51 76t-18.5 94.5v270q0 49 19 93t51.5 76.5t76 51.5t93.5 19q51 0 94.5 -18.5t76 -51t51 -76t18.5 -94.5v-270q0 -50 -19 -93.5t-51.5 -76t-76.5 -51.5t-93 -19zM290 50q37 0 70 14t57.5 38.5t38.5 57t14 70.5v270q0 37 -14 70
t-38.5 57.5t-57.5 38.5t-70 14q-38 0 -70.5 -14t-57 -38.5t-38.5 -57.5t-14 -70v-270q0 -38 14 -70.5t38.5 -57t57 -38.5t70.5 -14z" />
    <glyph glyph-name="one" unicode="1" horiz-adv-x="281" 
d="M140 669h-110l30 61h141v-730h-61v669z" />
    <glyph glyph-name="two" unicode="2" horiz-adv-x="555" 
d="M324 302q33 34 57 62t40.5 54t24.5 50.5t8 50.5q0 30 -13 59t-36.5 51.5t-55.5 36.5t-69 14q-59 0 -107 -33t-68 -90l-54 29q28 69 88.5 111.5t140.5 42.5q51 0 93.5 -18.5t74 -49t49 -70.5t17.5 -83q0 -38 -9 -69t-27.5 -61.5t-47 -62.5t-66.5 -71l-192 -195h363
l-31 -60h-474z" />
    <glyph glyph-name="three" unicode="3" horiz-adv-x="518" 
d="M280 -10q-80 0 -140.5 42.5t-88.5 111.5l54 29q20 -57 68 -90t107 -33q37 0 70 15t57.5 40t38.5 58.5t14 71.5q0 37 -13.5 67.5t-37 52.5t-55 33.5t-67.5 11.5h-54l30 60h21q21 1 40 10.5t33 25t22 35.5t8 42t-8.5 41.5t-23 34t-34 23t-41.5 8.5q-46 0 -73.5 -23.5
t-40.5 -62.5l-56 23q9 25 23.5 47.5t36 39t49 26.5t61.5 10q35 0 65.5 -13t53 -35.5t35.5 -53t13 -65.5q0 -40 -17.5 -78t-58.5 -59q34 -8 62 -27t47 -45.5t29.5 -59.5t10.5 -69q0 -50 -19 -94t-51.5 -78t-76.5 -53.5t-93 -19.5z" />
    <glyph glyph-name="four" unicode="4" horiz-adv-x="597" 
d="M420 125h-380l441 627v-566h106l-30 -61h-76v-125h-61v125zM420 560l-263 -374h263v374z" />
    <glyph glyph-name="five" unicode="5" horiz-adv-x="560" 
d="M280 -10q-80 0 -140.5 41t-88.5 110l54 29q20 -57 68 -88.5t107 -31.5q37 0 70 14t57.5 38.5t38.5 57t14 70.5q0 37 -12.5 70t-35 57.5t-54 38.5t-68.5 14q-16 0 -33.5 -3t-34 -8.5t-30 -13t-21.5 -15.5h-53v361h347l-30 -61h-258v-231q22 13 53 22t60 9q51 0 93 -18.5
t72.5 -51t47.5 -76t17 -94.5q0 -50 -19 -93.5t-51.5 -76t-76.5 -51.5t-93 -19z" />
    <glyph glyph-name="six" unicode="6" horiz-adv-x="585" 
d="M283 -9q-51 0 -94.5 18.5t-76 51t-51 76t-18.5 94.5q0 38 10.5 69t27.5 63l194 384l54 -28l-141 -277q6 6 17.5 11.5t25 9.5t27.5 6t26 2q52 0 95.5 -18t75.5 -50t50 -76t18 -96q0 -50 -19 -93.5t-51.5 -76t-76.5 -51.5t-93 -19zM283 51q37 0 70 14t57.5 38.5t38.5 57
t14 70.5q0 39 -13.5 72t-37.5 57t-57 37.5t-72 13.5q-36 0 -68.5 -14t-57.5 -38.5t-39.5 -57.5t-14.5 -70q0 -38 14 -70.5t38.5 -57t57 -38.5t70.5 -14z" />
    <glyph glyph-name="seven" unicode="7" horiz-adv-x="426" 
d="M-7 10l350 660h-353l30 60h426l-399 -748z" />
    <glyph glyph-name="eight" unicode="8" horiz-adv-x="560" 
d="M280 -10q-51 0 -94.5 18.5t-76 51t-51 76t-18.5 94.5q0 71 38.5 128t105.5 87q-35 22 -53 55t-18 73q0 35 13 65.5t35.5 53t53 35.5t65.5 13t65.5 -13t53 -35.5t35.5 -53t13 -65.5q0 -40 -18 -72.5t-53 -54.5q68 -29 106 -86.5t38 -129.5q0 -50 -19 -93.5t-51.5 -76
t-76.5 -51.5t-93 -19zM280 50q37 0 70 14t57.5 38.5t38.5 57t14 70.5q0 36 -13.5 68.5t-37 56.5t-55 38.5t-67.5 16.5h-14q-36 -2 -68 -16.5t-55 -38.5t-36.5 -56.5t-13.5 -68.5q0 -38 14 -70.5t38.5 -57t57 -38.5t70.5 -14zM284 470q43 2 73 30.5t30 72.5q0 22 -8.5 41.5
t-23 34t-34 23t-41.5 8.5t-41.5 -8.5t-34 -23t-23 -34t-8.5 -41.5q0 -44 29.5 -72.5t72.5 -30.5h9z" />
    <glyph glyph-name="nine" unicode="9" horiz-adv-x="585" 
d="M237 12l141 277q-6 -6 -17.5 -11.5t-25 -9.5t-27.5 -6t-26 -2q-52 0 -95.5 18t-75.5 50t-50 76t-18 96q0 49 19 93t51.5 76.5t76 51.5t93.5 19q51 0 94.5 -18.5t76 -51t51 -76t18.5 -94.5q0 -38 -10.5 -69t-27.5 -63l-194 -384zM283 320q36 0 68.5 14t57.5 38.5t39.5 57
t14.5 70.5q0 37 -14 70t-38.5 57.5t-57.5 38.5t-70 14q-38 0 -70.5 -14t-57 -38.5t-38.5 -57.5t-14 -70q0 -39 13.5 -72t37.5 -57t57 -37.5t72 -13.5z" />
    <glyph glyph-name="colon" unicode=":" horiz-adv-x="124" 
d="M62 -10q-19 0 -32 13t-13 32t13 32t32 13t32 -13t13 -32t-13 -32t-32 -13zM62 380q-19 0 -32 13t-13 32t13 32t32 13t32 -13t13 -32t-13 -32t-32 -13z" />
    <glyph glyph-name="semicolon" unicode=";" horiz-adv-x="124" 
d="M62 380q-19 0 -32 13t-13 32t13 32t32 13t32 -13t13 -32t-13 -32t-32 -13zM39 72l62 -8l-29 -248l-51 6z" />
    <glyph glyph-name="less" unicode="&#x3c;" horiz-adv-x="536" 
d="M50 202v66l413 165l23 -56l-357 -142l357 -142l-23 -56z" />
    <glyph glyph-name="equal" unicode="=" 
d="M50 183h445v-61h-445v61zM50 345h445v-61h-445v61z" />
    <glyph glyph-name="greater" unicode="&#x3e;" horiz-adv-x="536" 
d="M73 37l-23 56l357 142l-357 142l23 56l413 -165v-66z" />
    <glyph glyph-name="question" unicode="?" horiz-adv-x="449" 
d="M225 -22q-17 0 -29.5 12.5t-12.5 29.5t12.5 29.5t29.5 12.5t29.5 -12.5t12.5 -29.5t-12.5 -29.5t-29.5 -12.5zM194 407q31 12 60.5 25t52.5 30t36.5 40t13.5 57q0 28 -11.5 50.5t-31 38t-44.5 24t-51 8.5q-46 0 -81 -23.5t-55 -66.5l-53 29q10 24 28.5 45.5t42.5 38.5
t54 27t64 10q43 0 79.5 -14t63.5 -38.5t42 -57.5t15 -72q0 -44 -14 -75.5t-36.5 -54t-52 -38t-60.5 -28.5v-187h-62v232z" />
    <glyph glyph-name="at" unicode="@" horiz-adv-x="847" 
d="M421 -144q-78 0 -147.5 29.5t-121 80.5t-82 119t-30.5 146t30.5 146.5t82 119.5t120.5 80.5t147 29.5q88 0 159 -29.5t120 -80.5t75.5 -119t26.5 -146q0 -63 -17 -107.5t-43.5 -72.5t-57.5 -41t-59 -13q-34 0 -61.5 16.5t-38.5 45.5q-35 -39 -68 -54.5t-68 -15.5
q-38 0 -70.5 14t-57.5 39t-39 57.5t-14 70.5q0 37 14 70.5t39 58t57.5 39t70.5 14.5q35 0 68 -13t55 -42v102h-195v60h256v-341q0 -33 17 -49t40 -16q16 0 35 8.5t35.5 29t27.5 54.5t11 85q0 65 -22 124t-63.5 103.5t-100.5 70.5t-133 26q-65 0 -123.5 -26.5t-102 -71
t-69 -103t-25.5 -123.5t25.5 -124t69 -103.5t101.5 -71t123 -26.5q29 0 59.5 5t60 15t56 23.5t47.5 31.5l83 1q-27 -29 -62 -52t-74.5 -39.5t-82 -25.5t-84.5 -9zM388 46q26 0 49 10t40 27t27 39.5t10 48.5q0 27 -9.5 50t-26.5 40t-40 26.5t-50 9.5q-26 0 -48.5 -10
t-39.5 -27t-27 -40t-10 -49q0 -27 9.5 -50t26 -39.5t39.5 -26t50 -9.5z" />
    <glyph glyph-name="A" unicode="A" horiz-adv-x="654" 
d="M1 4l325 746l325 -746l-55 -24l-116 266h-308l-116 -266zM453 307l-127 292l-128 -292h255z" />
    <glyph glyph-name="B" unicode="B" horiz-adv-x="515" 
d="M50 730h203q12 0 29.5 -1.5t28.5 -3.5q31 -5 59 -19t48 -35.5t32 -49.5t12 -61q0 -66 -30.5 -110t-84.5 -58q75 -11 116.5 -61.5t41.5 -126.5q0 -38 -11.5 -70.5t-32.5 -58.5t-50 -44t-65 -26q-16 -4 -34.5 -4.5t-35.5 -0.5h-226v730zM276 60q15 0 32 1t31 4
q45 11 74.5 46t29.5 93q0 67 -34.5 103t-88.5 47q-12 2 -28.5 3t-29.5 1h-151v-298h165zM255 418q15 0 29 2t28 5q19 4 35 16.5t27.5 30.5t18 40t6.5 46q0 48 -28.5 75t-70.5 33q-10 2 -24.5 3t-24.5 1h-140v-252h144z" />
    <glyph glyph-name="C" unicode="C" horiz-adv-x="664" 
d="M401 -10q-79 0 -148.5 29.5t-121 80.5t-81.5 119.5t-30 147.5t30 147t81.5 118.5t120.5 79t148 28.5q73 0 138 -23.5t116 -67.5l-38 -50q-43 36 -98.5 58.5t-118.5 22.5q-66 0 -124 -24t-100.5 -66.5t-67 -99.5t-24.5 -123t24.5 -124t67 -101t100 -67.5t123.5 -24.5
q63 0 121.5 24t103.5 65l39 -49q-50 -45 -119 -72.5t-142 -27.5z" />
    <glyph glyph-name="D" unicode="D" horiz-adv-x="633" 
d="M50 730h160h41t40 -2q73 -7 132.5 -34t101.5 -73t65 -110t23 -145q0 -82 -25.5 -145t-69 -108t-101.5 -72t-124 -37q-17 -3 -39 -3.5t-40 -0.5h-164v730zM219 60q18 0 40.5 2t39.5 5q53 10 99 33.5t79.5 60.5t53 88t19.5 117q0 67 -19 120.5t-53.5 92t-82 61t-104.5 28.5
q-15 2 -37.5 2h-38.5h-104v-610h108z" />
    <glyph glyph-name="E" unicode="E" horiz-adv-x="473" 
d="M50 730h423l-30 -60h-332v-270h323v-60h-323v-280h342v-60h-403v730z" />
    <glyph glyph-name="F" unicode="F" horiz-adv-x="474" 
d="M50 730h424l-30 -60h-333v-270h304v-60h-304v-340h-61v730z" />
    <glyph glyph-name="G" unicode="G" horiz-adv-x="766" 
d="M394 -10q-78 0 -146 30t-119 81t-80 119.5t-29 146.5t29.5 146t80 118.5t118.5 79.5t146 29q98 0 181.5 -41t141.5 -115l-51 -37q-46 60 -117.5 96.5t-154.5 36.5q-65 0 -122 -24.5t-99.5 -67t-67 -99.5t-24.5 -122t24.5 -123t67 -101t99.5 -68t122 -25t117 23t88.5 60.5
t57 83.5t22.5 93h-295l30 60h331v-19q0 -68 -23.5 -133t-68 -115.5t-110 -81.5t-149.5 -31z" />
    <glyph glyph-name="H" unicode="H" horiz-adv-x="633" 
d="M50 730h61v-330h411v330h61v-730h-61v340h-411v-340h-61v730z" />
    <glyph glyph-name="I" unicode="I" horiz-adv-x="161" 
d="M50 730h61v-730h-61v730z" />
    <glyph glyph-name="J" unicode="J" horiz-adv-x="160" 
d="M-40 -132q-28 0 -53.5 9.5t-45.5 26.5l38 47q12 -11 27.5 -17t32.5 -6q29 0 53 16t32 42q2 8 3.5 17.5t1.5 25.5v701h61v-701q0 -19 -1.5 -32t-4.5 -24q-14 -46 -53.5 -75.5t-90.5 -29.5z" />
    <glyph glyph-name="K" unicode="K" horiz-adv-x="553" 
d="M50 730h61v-730h-61v730zM112 370l362 376l44 -43l-321 -333l343 -347l-44 -43z" />
    <glyph glyph-name="L" unicode="L" horiz-adv-x="387" 
d="M50 730h61v-670h291l-30 -60h-322v730z" />
    <glyph glyph-name="M" unicode="M" horiz-adv-x="776" 
d="M48 750l340 -492l340 492v-750h-61v539l-279 -397l-279 397v-539h-61v750z" />
    <glyph glyph-name="N" unicode="N" horiz-adv-x="701" 
d="M50 750l540 -607v587h61v-750l-540 609v-589h-61v750z" />
    <glyph glyph-name="O" unicode="O" horiz-adv-x="801" 
d="M400 -10q-79 0 -147.5 29t-119 79t-79.5 118.5t-29 147.5q0 78 29.5 146.5t80 119.5t119 80.5t146.5 29.5t146.5 -29t119.5 -80t80.5 -119.5t29.5 -147.5q0 -78 -29.5 -146t-80.5 -119t-119.5 -80t-146.5 -29zM399 50q64 0 121 24.5t99.5 67.5t67 99.5t24.5 121.5
q0 66 -23.5 123.5t-65.5 100.5t-99 68t-124 25q-65 0 -121.5 -25.5t-99 -68.5t-67 -101t-24.5 -122q0 -66 24 -123t66 -99t99 -66.5t123 -24.5z" />
    <glyph glyph-name="P" unicode="P" horiz-adv-x="488" 
d="M50 730h237q11 0 22 -1t22 -3q63 -11 105 -55.5t42 -122.5q0 -39 -11.5 -71.5t-32 -57t-47.5 -41t-57 -22.5q-11 -2 -26.5 -3t-27.5 -1h-165v-352h-61v730zM254 413q6 0 16 0.5t21 1t21 1.5t15 3q39 12 64 46t25 82t-26.5 80t-69.5 40q-17 3 -33 3h-176v-257h143z" />
    <glyph glyph-name="Q" unicode="Q" horiz-adv-x="801" 
d="M371 -9q-74 5 -137 35.5t-109.5 80.5t-73 115.5t-26.5 141.5q0 78 29.5 146.5t80 119.5t119 80.5t146.5 29.5t146.5 -29t119.5 -80t80.5 -119.5t29.5 -147.5q0 -74 -26.5 -139.5t-73 -115.5t-109.5 -81t-135 -37v-126h-61v126zM371 164h61v-112q58 6 109 32.5t89 68.5
t59.5 96t21.5 114q0 66 -23.5 123.5t-65.5 100.5t-99 68t-124 25q-65 0 -121.5 -25.5t-99 -68.5t-67 -101t-24.5 -122q0 -62 21.5 -116.5t59.5 -96.5t90 -68t113 -31v113z" />
    <glyph glyph-name="R" unicode="R" horiz-adv-x="490" 
d="M50 730h227q11 0 22 -1t22 -3q63 -11 105 -55.5t42 -122.5q0 -39 -11.5 -71.5t-32 -57t-47.5 -41t-57 -22.5q-11 -2 -26.5 -3t-27.5 -1h-22l236 -329l-48 -38l-319 428h131q6 0 16 0.5t21 1t21 1.5t15 3q39 12 64 46t25 82t-26.5 80t-69.5 40q-17 3 -33 3h-166v-670h-61
v730z" />
    <glyph glyph-name="S" unicode="S" horiz-adv-x="496" 
d="M247 -10q-80 0 -139.5 41t-87.5 110l54 29q20 -57 68 -88.5t107 -31.5q34 0 64.5 10.5t53 29t35.5 45.5t13 60q0 36 -15.5 61t-40 42.5t-56.5 31t-65.5 26.5t-65.5 29t-56.5 38.5t-40 55t-15.5 79.5q0 39 15 72t42 57.5t63.5 38.5t79.5 14q34 0 64 -10t54 -27t42 -38.5
t29 -45.5l-53 -29q-20 43 -55 66.5t-81 23.5q-26 0 -51 -8.5t-44.5 -24t-31 -38t-11.5 -50.5q0 -35 15.5 -59t40 -41.5t56.5 -30.5t65.5 -26t65.5 -29t56.5 -39.5t40 -56.5t15.5 -81q0 -44 -18 -81.5t-49.5 -65t-73 -43.5t-89.5 -16z" />
    <glyph glyph-name="T" unicode="T" horiz-adv-x="459" 
d="M200 669h-200v61h474l-30 -61h-183v-669h-61v669z" />
    <glyph glyph-name="U" unicode="U" horiz-adv-x="633" 
d="M317 -10q-50 0 -95.5 16t-80.5 44t-58.5 67t-30.5 86q-2 12 -2 29v30v468h61v-467v-26t2 -25q5 -35 22.5 -65t44.5 -51.5t62 -33.5t75 -12t75 12t62 33.5t44.5 51.5t22.5 65q2 10 2 25v26v467h61v-468v-30t-2 -29q-7 -47 -30.5 -86t-58.5 -67t-80.5 -44t-95.5 -16z" />
    <glyph glyph-name="V" unicode="V" horiz-adv-x="666" 
d="M10 725l55 24l268 -615l268 615l55 -24l-323 -741z" />
    <glyph glyph-name="W" unicode="W" horiz-adv-x="1050" 
d="M10 728l56 22l228 -598l231 600l231 -600l228 598l56 -22l-284 -744l-231 601l-231 -601z" />
    <glyph glyph-name="X" unicode="X" horiz-adv-x="567" 
d="M10 9l234 362l-222 351l51 33l214 -339l219 340l51 -33l-229 -357l229 -361l-51 -33l-222 349l-223 -345z" />
    <glyph glyph-name="Y" unicode="Y" horiz-adv-x="541" 
d="M239 311l-229 409l53 30l206 -369l209 369l53 -30l-231 -408v-312h-61v311z" />
    <glyph glyph-name="Z" unicode="Z" horiz-adv-x="547" 
d="M435 670h-395l30 60h477l-436 -670h436v-60h-548z" />
    <glyph glyph-name="bracketleft" unicode="[" horiz-adv-x="319" 
d="M50 819h219v-56h-158v-818h158v-56h-219v930z" />
    <glyph glyph-name="backslash" unicode="\" horiz-adv-x="524" 
d="M55 799l56 24l355 -822l-56 -24z" />
    <glyph glyph-name="bracketright" unicode="]" horiz-adv-x="319" 
d="M50 -55h158v818h-158v56h219v-930h-219v56z" />
    <glyph glyph-name="asciicircum" unicode="^" horiz-adv-x="439" 
d="M50 380l142 351h55l142 -351l-57 -23l-113 278l-112 -278z" />
    <glyph glyph-name="underscore" unicode="_" horiz-adv-x="469" 
d="M0 -122h469v-61h-469v61z" />
    <glyph glyph-name="grave" unicode="`" horiz-adv-x="360" 
d="M95 686l64 34l123 -164l-24 -21z" />
    <glyph glyph-name="a" unicode="a" 
d="M259 -9q-50 0 -94 18.5t-76 51t-50.5 76.5t-18.5 94t18.5 94t50.5 76.5t76 51t94 18.5q55 0 100.5 -24.5t74.5 -66.5v81h61v-461h-61v80q-34 -46 -77 -67.5t-98 -21.5zM260 51q39 0 71.5 13.5t56 37.5t37 57t13.5 72q0 37 -14 70t-38 57.5t-56.5 38.5t-69.5 14
q-38 0 -70.5 -14t-57 -38.5t-38.5 -57.5t-14 -70q0 -38 14 -70.5t38.5 -57t57 -38.5t70.5 -14z" />
    <glyph glyph-name="b" unicode="b" 
d="M50 775h61v-394q34 46 77 67.5t98 21.5q51 0 95 -18t76 -50.5t50 -76.5t18 -95q0 -49 -19 -92.5t-51.5 -76.5t-76 -52t-92.5 -19q-55 0 -99 24.5t-76 66.5v-81h-61v775zM285 50q37 0 70 14t57.5 38.5t38.5 57t14 70.5q0 39 -13.5 72t-37.5 57t-57 37.5t-72 13.5
t-72 -13.5t-57 -37.5t-37.5 -57t-13.5 -72q0 -38 14 -70.5t38.5 -57t57 -38.5t70.5 -14z" />
    <glyph glyph-name="c" unicode="c" horiz-adv-x="444" 
d="M263 -10q-51 0 -94.5 18.5t-76 51t-51 76t-18.5 94.5q0 49 19 93t51.5 76.5t76 51.5t93.5 19q51 0 95 -18.5t76 -50.5l-41 -46q-25 26 -58.5 40.5t-71.5 14.5t-70.5 -14t-57 -38.5t-38.5 -57.5t-14 -70q0 -38 14 -70.5t38.5 -57t57 -38.5t70.5 -14q42 0 77 17t60 46
l44 -40q-33 -38 -80 -60.5t-101 -22.5z" />
    <glyph glyph-name="d" unicode="d" 
d="M262 -10q-49 0 -92.5 19t-76 52t-51.5 76.5t-19 92.5q0 51 18 95t50 76.5t76 50.5t95 18q55 0 98 -21.5t77 -67.5v394h61v-775h-61v81q-32 -42 -76 -66.5t-99 -24.5zM263 50q37 0 70 14t57.5 38.5t38.5 57t14 70.5q0 39 -13.5 72t-37.5 57t-57 37.5t-72 13.5t-72 -13.5
t-57 -37.5t-37.5 -57t-13.5 -72q0 -38 14 -70.5t38.5 -57t57 -38.5t70.5 -14z" />
    <glyph glyph-name="e" unicode="e" horiz-adv-x="523" 
d="M263 -10q-51 0 -94.5 18.5t-76 51t-51 76t-18.5 94.5q0 49 19 93t51.5 76.5t76 51.5t93.5 19q52 0 94.5 -18.5t73.5 -51.5t48 -77.5t17 -96.5v-13h-412q3 -34 18.5 -63.5t39.5 -51.5t55 -35t66 -13q59 0 96.5 23.5t66.5 57.5l45 -42q-36 -41 -85.5 -70t-122.5 -29z
M427 274q-10 59 -52 97.5t-112 38.5q-32 0 -60 -10.5t-51 -28.5t-39.5 -43t-23.5 -54h338z" />
    <glyph glyph-name="f" unicode="f" horiz-adv-x="195" 
d="M51 400h-41v60h41v174q0 19 1.5 32t4.5 24q14 46 52 70.5t92 24.5v-62q-32 0 -54 -10t-30 -36q-2 -8 -3.5 -17.5t-1.5 -25.5v-174h73v-60h-73v-400h-61v400z" />
    <glyph glyph-name="g" unicode="g" 
d="M255 -225q-27 0 -55 7t-53.5 20t-48 29.5t-38.5 36.5l43 42q24 -30 65 -52.5t87 -22.5q87 0 133 45t46 130v69q-34 -46 -77 -67.5t-98 -21.5q-51 0 -95 18t-76 50.5t-50 76.5t-18 95q0 49 19 92.5t51.5 76.5t76 52t92.5 19q55 0 99 -24.5t76 -66.5v81h61v-450
q0 -112 -64 -173.5t-176 -61.5zM260 50q39 0 71.5 13.5t56.5 37.5t37.5 57t13.5 72q0 37 -14 70t-38 57.5t-57 38.5t-70 14q-38 0 -70.5 -14t-57 -38.5t-38.5 -57.5t-14 -70q0 -39 13.5 -72t37.5 -57t57 -37.5t72 -13.5z" />
    <glyph glyph-name="h" unicode="h" horiz-adv-x="531" 
d="M50 775h61v-394q32 45 71.5 67t93.5 22q88 0 142 -50t68 -129q2 -14 3.5 -29.5t1.5 -31.5v-230h-61v230q0 11 -1 25t-3 26q-10 57 -48.5 93t-102.5 36q-39 0 -69.5 -13.5t-51.5 -37.5t-32 -57t-11 -72v-230h-61v775z" />
    <glyph glyph-name="i" unicode="i" horiz-adv-x="161" 
d="M50 460h61v-460h-61v460zM80 621q-18 0 -31 13t-13 31t13 31t31 13t31 -13t13 -31t-13 -31t-31 -13z" />
    <glyph glyph-name="j" unicode="j" horiz-adv-x="160" 
d="M-39 -163q29 0 52.5 15t31.5 41q2 8 3.5 17.5t1.5 25.5v524h61v-524q0 -19 -1.5 -32t-4.5 -24q-14 -46 -53.5 -75.5t-90.5 -29.5v62zM80 621q-18 0 -31 13t-13 31t13 31t31 13t31 -13t13 -31t-13 -31t-31 -13z" />
    <glyph glyph-name="k" unicode="k" horiz-adv-x="418" 
d="M50 775h61v-775h-61v775zM113 248l220 229l44 -43l-179 -186l220 -222l-44 -43z" />
    <glyph glyph-name="l" unicode="l" horiz-adv-x="161" 
d="M50 775h61v-775h-61v775z" />
    <glyph glyph-name="m" unicode="m" horiz-adv-x="837" 
d="M50 460h61v-79q29 45 62 67t83 22q72 0 114 -34.5t62 -91.5q29 65 72.5 95.5t97.5 30.5q43 0 76 -13t56 -36.5t37.5 -56.5t20.5 -72q2 -14 3.5 -30t1.5 -32v-230h-61v230q0 11 -1 25.5t-3 26.5q-9 57 -40 92.5t-91 35.5q-32 0 -59.5 -13t-47.5 -37t-31.5 -57t-11.5 -73
v-230h-61v230q0 11 -1 25t-3 26q-10 57 -40.5 93t-90.5 36q-33 0 -59.5 -13.5t-45.5 -37.5t-29 -57t-10 -72v-230h-61v460z" />
    <glyph glyph-name="n" unicode="n" horiz-adv-x="511" 
d="M50 460h61v-79q32 45 71.5 67t93.5 22q41 0 74 -13t57 -37t39 -57t21 -72q2 -14 3 -29.5t1 -31.5v-230h-61v230q0 11 -0.5 25t-2.5 26q-8 57 -40 93t-92 36q-37 0 -67 -13.5t-51.5 -37.5t-33.5 -57t-12 -72v-230h-61v460z" />
    <glyph glyph-name="o" unicode="o" horiz-adv-x="526" 
d="M263 -10q-51 0 -94.5 18.5t-76 51t-51 76t-18.5 94.5q0 49 19 93t51.5 76.5t76 51.5t93.5 19q51 0 94.5 -18.5t76 -51t51 -76t18.5 -94.5q0 -50 -19 -93.5t-51.5 -76t-76.5 -51.5t-93 -19zM263 50q37 0 70 14t57.5 38.5t38.5 57t14 70.5q0 37 -14 70t-38.5 57.5
t-57.5 38.5t-70 14q-38 0 -70.5 -14t-57 -38.5t-38.5 -57.5t-14 -70q0 -38 14 -70.5t38.5 -57t57 -38.5t70.5 -14z" />
    <glyph glyph-name="p" unicode="p" 
d="M50 460h61v-81q32 42 76 66.5t99 24.5q49 0 92.5 -19t76 -52t51.5 -76.5t19 -92.5q0 -51 -18 -95t-50 -76.5t-76 -50.5t-95 -18q-55 0 -98 21.5t-77 67.5v-304h-61v685zM285 50q39 0 72 13.5t57 37.5t37.5 57t13.5 72q0 37 -14 70t-38.5 57.5t-57.5 38.5t-70 14
q-38 0 -70.5 -14t-57 -38.5t-38.5 -57.5t-14 -70q0 -39 13.5 -72t37.5 -57t57 -37.5t72 -13.5z" />
    <glyph glyph-name="q" unicode="q" 
d="M259 -10q-51 0 -95 18t-76 50.5t-50 76.5t-18 95q0 49 19 92.5t51.5 76.5t76 52t92.5 19q55 0 99 -24.5t76 -66.5v81h61v-685h-61v304q-34 -46 -77 -67.5t-98 -21.5zM260 50q39 0 72 13.5t57 37.5t37.5 57t13.5 72q0 37 -14 70t-38.5 57.5t-57.5 38.5t-70 14
q-38 0 -70.5 -14t-57 -38.5t-38.5 -57.5t-14 -70q0 -39 13.5 -72t37.5 -57t57 -37.5t72 -13.5z" />
    <glyph glyph-name="r" unicode="r" horiz-adv-x="314" 
d="M50 460h56v-79q26 46 64.5 67.5t95.5 21.5q16 0 35 -4t34 -12l-20 -58q-8 5 -23 9.5t-36 4.5q-57 0 -96.5 -34.5t-50.5 -93.5q-4 -19 -4 -44l1 -238h-56v460z" />
    <glyph glyph-name="s" unicode="s" horiz-adv-x="355" 
d="M174 -10q-55 0 -96 30.5t-58 84.5q5 1 9 3t9 4l10 4q12 4 27 11q11 -34 37 -55.5t62 -21.5q48 0 74.5 22.5t26.5 61.5q0 26 -16.5 42.5t-44.5 28.5l-81 35q-33 14 -59.5 38.5t-26.5 68.5q0 29 11 52t30 38.5t44 24t53 8.5q24 0 45 -7.5t38.5 -20t29.5 -28.5t18 -32
l-51 -26q-7 18 -27.5 36t-51.5 18t-55 -15.5t-24 -47.5q0 -23 18 -35t44 -23l77 -34q39 -17 64 -46t25 -75q0 -34 -12.5 -61t-34.5 -45.5t-51.5 -28t-62.5 -9.5z" />
    <glyph glyph-name="t" unicode="t" horiz-adv-x="253" 
d="M88 400h-53v60h53v179l61 30v-209h94v-60h-94v-400h-61v400z" />
    <glyph glyph-name="u" unicode="u" horiz-adv-x="492" 
d="M245 -10q-41 0 -76 13t-61 37t-43 57t-22 72q-2 14 -2.5 29.5t-0.5 31.5v230h61v-230q0 -11 0.5 -25t2.5 -26q8 -57 45 -93t97 -36t97 36t45 93q2 12 2.5 26t0.5 25v230h61v-230q0 -16 -0.5 -31.5t-2.5 -29.5q-5 -39 -22 -72t-43.5 -57t-61.5 -37t-77 -13z" />
    <glyph glyph-name="v" unicode="v" horiz-adv-x="425" 
d="M0 460l56 25l159 -361l157 361l56 -25l-214 -484z" />
    <glyph glyph-name="w" unicode="w" horiz-adv-x="738" 
d="M10 460l57 23l142 -350l160 348l159 -348l143 350l57 -23l-196 -481l-164 354l-162 -354z" />
    <glyph glyph-name="x" unicode="x" horiz-adv-x="456" 
d="M10 18l179 228l-156 200l48 38l149 -191l150 191l48 -38l-159 -203l177 -225l-48 -38l-170 216l-170 -216z" />
    <glyph glyph-name="y" unicode="y" horiz-adv-x="455" 
d="M96 -200l94 214l-189 446l56 24l167 -393l173 394l56 -25l-301 -685z" />
    <glyph glyph-name="z" unicode="z" horiz-adv-x="488" 
d="M344 400h-305l30 60h407l-340 -400h342v-60h-473z" />
    <glyph glyph-name="braceleft" unicode="{" horiz-adv-x="156" 
d="M213 -118q-66 23 -104 79.5t-38 137.5v190q0 11 -1.5 22t-5.5 20t-11.5 14.5t-20.5 5.5h-32v61h32q25 0 32 19t7 42v190q0 81 38 137.5t104 79.5l30 -47q-39 -14 -61.5 -36.5t-33 -49.5t-13 -55.5t-2.5 -54.5v-189q0 -17 -8.5 -36.5t-33.5 -30.5q25 -11 33.5 -30.5
t8.5 -36.5v-189q0 -26 2.5 -54.5t13 -55.5t33 -49.5t61.5 -36.5l-30 -47v0z" />
    <glyph glyph-name="bar" unicode="|" horiz-adv-x="161" 
d="M50 818h61v-929h-61v929z" />
    <glyph glyph-name="braceright" unicode="}" horiz-adv-x="156" 
d="M-90 -71q39 14 61.5 36.5t33 49.5t13 55.5t2.5 54.5v189q0 17 8.5 36.5t33.5 30.5q-25 11 -33.5 30.5t-8.5 36.5v189q0 26 -2.5 54.5t-13 55.5t-33 49.5t-61.5 36.5l30 47q66 -23 104 -79.5t38 -137.5v-190q0 -11 1.5 -22t5.5 -19.5t11.5 -14t20.5 -5.5h32v-61h-32
q-13 0 -20.5 -5.5t-11.5 -14.5t-5.5 -20t-1.5 -22v-190q0 -81 -38 -137.5t-104 -79.5z" />
    <glyph glyph-name="asciitilde" unicode="~" horiz-adv-x="578" 
d="M45 234q12 19 25 38t30 34t38 24.5t48 9.5q31 0 58 -16t51.5 -35t48.5 -35t48 -16q18 0 34 10.5t29.5 25.5t25 32.5t20.5 31.5l44 -31q-11 -21 -26 -43t-34 -40t-42 -30t-50 -12t-57 16t-58 35t-51.5 35t-38.5 16q-30 0 -52 -19.5t-46 -58.5z" />
    <glyph glyph-name="nonbreakingspace" unicode="&#xa0;" horiz-adv-x="250" 
 />
    <glyph glyph-name="exclamdown" unicode="&#xa1;" horiz-adv-x="160" 
d="M51 544h60v-554h-60v554zM82 658q-17 0 -29.5 12.5t-12.5 29.5t12.5 29.5t29.5 12.5t29.5 -12.5t12.5 -29.5t-12.5 -29.5t-29.5 -12.5z" />
    <glyph glyph-name="cent" unicode="&#xa2;" horiz-adv-x="444" 
d="M229 -8q-45 6 -82.5 26.5t-65 52t-43 72t-15.5 87.5q0 45 16 85.5t43.5 72t65 52.5t81.5 27v99h61v-97q42 -5 79 -22.5t65 -45.5l-41 -46q-42 44 -103 53v-356q33 5 61 21t49 40l44 -40q-29 -33 -68.5 -54.5t-85.5 -26.5v-92h-61v92zM229 407q-32 -6 -58.5 -22t-46 -39.5
t-30.5 -53t-11 -62.5t11 -63t30.5 -53.5t46 -39t58.5 -21.5v354z" />
    <glyph glyph-name="sterling" unicode="&#xa3;" horiz-adv-x="578" 
d="M25 42q12 19 25 38t30 34t38 24.5t48 9.5q10 0 15 -1q6 20 8.5 38t2.5 34q0 26 -5.5 42t-14.5 36h-132v61h102q-12 20 -25 40.5t-23 44.5t-16.5 52t-6.5 63q0 39 14.5 72t41 57.5t62.5 38.5t79 14q34 0 64 -10t54 -27t42 -38.5t29 -45.5l-53 -28q-20 43 -55 67t-81 24
q-26 0 -51 -8.5t-44.5 -24.5t-31 -39t-11.5 -51q0 -32 8 -58.5t20.5 -50.5t27.5 -46t29 -46h182l-30 -61h-127q7 -19 11 -35t4 -40q0 -44 -16 -99q18 -11 35 -24.5t33.5 -25t32.5 -19t32 -7.5t31 10t28.5 25t25 32.5t20.5 31.5l48 -31q-11 -21 -26 -43t-34 -40t-42 -30
t-50 -12q-32 0 -61.5 15t-55 32.5t-47 32.5t-36.5 15q-30 0 -52 -19.5t-46 -58.5z" />
    <glyph glyph-name="yen" unicode="&#xa5;" horiz-adv-x="541" 
d="M239 148h-189v61h189v101h-189v61h155l-195 349l53 30l206 -369l209 369l53 -30l-198 -349h162v-61h-195v-101h195v-61h-195v-148h-61v148z" />
    <glyph glyph-name="brokenbar" unicode="&#xa6;" horiz-adv-x="156" 
d="M50 297h61v-389h-61v389zM50 810h61v-395h-61v395z" />
    <glyph glyph-name="section" unicode="&#xa7;" horiz-adv-x="507" 
d="M247 -224q-80 0 -139.5 41t-87.5 110l54 29q20 -57 68 -88.5t107 -31.5q34 0 64.5 10.5t53 29t35.5 45.5t13 60q0 36 -15.5 61t-40 42.5t-56.5 31t-65.5 26.5t-65.5 29t-56.5 38.5t-40 55t-15.5 79.5q0 63 39 110q-14 20 -21.5 45.5t-7.5 58.5q0 39 15 72t42 57.5
t63.5 38.5t79.5 14q34 0 64 -10t54 -27t42 -38.5t29 -45.5l-53 -29q-20 43 -55 66.5t-81 23.5q-26 0 -51 -8.5t-44.5 -24t-31 -38t-11.5 -50.5q0 -35 15.5 -59t40 -41.5t56.5 -30.5t65.5 -26t65.5 -29t56.5 -39.5t40 -56.5t15.5 -81q0 -63 -36 -113q12 -20 19 -44.5t7 -56.5
q0 -44 -18 -81.5t-49.5 -65t-73 -43.5t-89.5 -16zM409 130q16 30 16 65q0 34 -14 58t-36.5 41.5t-52 30.5t-61 25.5t-62.5 26t-57 33.5q-20 -28 -20 -65q0 -34 14 -57.5t37.5 -40.5t53.5 -30t62 -25.5t63 -27t57 -34.5z" />
    <glyph glyph-name="dieresis" unicode="&#xa8;" horiz-adv-x="470" 
d="M162 526q-17 0 -29.5 12.5t-12.5 29.5t12.5 29.5t29.5 12.5t29.5 -12.5t12.5 -29.5t-12.5 -29.5t-29.5 -12.5zM312 526q-17 0 -29.5 12.5t-12.5 29.5t12.5 29.5t29.5 12.5t29.5 -12.5t12.5 -29.5t-12.5 -29.5t-29.5 -12.5z" />
    <glyph glyph-name="copyright" unicode="&#xa9;" horiz-adv-x="801" 
d="M398 -16q-77 0 -145 30.5t-119 82.5t-80.5 121t-29.5 146q0 76 30 145t81 121t119 82.5t145 30.5q76 0 144 -30.5t119 -82.5t81 -121t30 -146t-30 -145.5t-81 -120.5t-119 -82.5t-145 -30.5zM398 33q66 0 125.5 27t104 72t70.5 105t26 126t-26 126t-70.5 105.5
t-103.5 72.5t-125 27t-125.5 -27t-104 -72t-70.5 -105t-26 -126t26 -126t70.5 -105.5t103.5 -72.5t125 -27zM405 78q-60 0 -112.5 22.5t-92 61t-62 90.5t-22.5 112t22.5 111.5t61.5 89.5t91.5 59.5t112.5 21.5q55 0 104.5 -18t87.5 -50l-29 -38q-32 27 -74 44t-90 17
q-50 0 -94 -18.5t-76 -50.5t-50.5 -75t-18.5 -93t18.5 -94t50.5 -76.5t75.5 -51t93.5 -18.5q48 0 92 18t79 49l29 -37q-38 -34 -90 -55t-107 -21z" />
    <glyph glyph-name="ordfeminine" unicode="&#xaa;" horiz-adv-x="332" 
d="M28 382h284v-48h-284v48zM165 400q-30 0 -56.5 11.5t-46 31t-31 46t-11.5 56.5t11.5 56.5t31 46t46 31t56.5 11.5q29 0 55 -10t44 -34v82h-156v48h204v-368h-48v38q-20 -24 -45 -35t-54 -11zM165 445q21 0 39 8t32 21.5t22 31.5t8 39q0 43 -28.5 72t-72.5 29
q-21 0 -39 -8t-31.5 -22t-21.5 -32t-8 -39q0 -44 28.5 -72t71.5 -28z" />
    <glyph glyph-name="guillemotleft" unicode="&#xab;" horiz-adv-x="407" 
d="M20 230l166 239l51 -35l-141 -204l141 -204l-51 -35zM170 230l166 239l51 -35l-141 -204l141 -204l-51 -35z" />
    <glyph glyph-name="logicalnot" unicode="&#xac;" horiz-adv-x="355" 
d="M256 220h-226v61h287v-158h-61v97z" />
    <glyph glyph-name="registered" unicode="&#xae;" horiz-adv-x="801" 
d="M398 -16q-77 0 -145 30.5t-119 82.5t-80.5 121t-29.5 146q0 76 30 145t81 121t119 82.5t145 30.5q76 0 144 -30.5t119 -82.5t81 -121t30 -146t-30 -145.5t-81 -120.5t-119 -82.5t-145 -30.5zM398 33q66 0 125.5 27t104 72t70.5 105t26 126t-26 126t-70.5 105.5
t-103.5 72.5t-125 27t-125.5 -27t-104 -72t-70.5 -105t-26 -126t26 -126t70.5 -105.5t103.5 -72.5t125 -27zM254 647h172q30 0 56 -8.5t46 -26t31.5 -43.5t11.5 -60q0 -38 -13 -65.5t-34.5 -46.5t-49 -28t-56.5 -9h-17l179 -249l-36 -28l-242 324h99q55 0 89 22.5t34 78.5
q0 45 -28 69t-70 24h-126v-507h-46v553z" />
    <glyph glyph-name="macron" unicode="&#xaf;" horiz-adv-x="500" 
d="M101 586h300v-51h-300v51z" />
    <glyph glyph-name="degree" unicode="&#xb0;" horiz-adv-x="400" 
d="M200 513q-27 0 -51 10.5t-42 28t-28 41.5t-10 51t10 51t28 41.5t42 28t51 10.5t50.5 -10.5t41.5 -28t28.5 -41.5t10.5 -51t-10.5 -51t-28.5 -41.5t-41.5 -28t-50.5 -10.5zM200 557q37 0 62 24.5t25 62.5q0 37 -25 62t-63 25q-21 0 -37 -7.5t-26.5 -19.5t-16 -27.5
t-5.5 -31.5q0 -33 21.5 -60.5t64.5 -27.5z" />
    <glyph glyph-name="plusminus" unicode="&#xb1;" horiz-adv-x="580" 
d="M54 -34h471v-62h-471v62zM55 265h205v195h61v-195h204v-61h-204v-204h-61v204h-205v61z" />
    <glyph glyph-name="twosuperior" unicode="&#xb2;" horiz-adv-x="465" 
d="M276 390q52 54 78 92.5t26 80.5q0 24 -10.5 47t-29.5 41.5t-44.5 29.5t-55.5 11q-48 0 -85.5 -26.5t-54.5 -71.5l-43 23q23 55 71.5 89t111.5 34q40 0 74.5 -14.5t60 -39.5t39.5 -57t14 -66q0 -30 -7.5 -55t-22.5 -49.5t-37.5 -50t-52.5 -56.5l-154 -156h290l-24 -48
h-380z" />
    <glyph glyph-name="threesuperior" unicode="&#xb3;" horiz-adv-x="432" 
d="M206 141q-64 0 -112.5 34t-70.5 89l43 23q17 -45 54.5 -71.5t85.5 -26.5q30 0 56 12t45.5 32t31 47t11.5 57t-11 54.5t-29.5 41.5t-44 26.5t-53.5 9.5h-44l24 48h17q35 2 59 28.5t24 61.5q0 18 -7 33.5t-18.5 27.5t-27 18.5t-33.5 6.5q-37 0 -59 -18.5t-32 -50.5l-45 19
q14 40 47.5 69t88.5 29q28 0 52.5 -10.5t42.5 -28.5t28.5 -42.5t10.5 -52.5q0 -32 -14 -62t-47 -47q55 -14 87 -58.5t32 -102.5q0 -40 -15 -75.5t-41 -62.5t-61 -42.5t-75 -15.5z" />
    <glyph glyph-name="acute" unicode="&#xb4;" horiz-adv-x="360" 
d="M76 554l125 166l62 -35l-162 -151z" />
    <glyph glyph-name="mu" unicode="&#xb5;" horiz-adv-x="492" 
d="M40 460h61v-230q0 -11 0.5 -25t2.5 -26q8 -57 45 -93t97 -36t97 36t45 93q2 12 2.5 26t0.5 25v230h61v-230q0 -16 -0.5 -31.5t-2.5 -29.5q-5 -39 -22 -72t-43.5 -57t-61.5 -37t-77 -13q-50 0 -92 21t-65 57l16 -233h-64v625z" />
    <glyph glyph-name="paragraph" unicode="&#xb6;" horiz-adv-x="533" 
d="M239 273q-42 0 -78.5 15t-63.5 44t-42.5 70.5t-15.5 94.5q0 42 15.5 84t43 75t66 53.5t84.5 20.5h233v-61h-59v-818h-61v818h-62v-818h-60v422z" />
    <glyph glyph-name="periodcentered" unicode="&#xb7;" horiz-adv-x="149" 
d="M75 279q-19 0 -32 13t-13 32t13 32t32 13t32 -13t13 -32t-13 -32t-32 -13z" />
    <glyph glyph-name="cedilla" unicode="&#xb8;" horiz-adv-x="330" 
d="M55 -164l125 166l62 -35l-163 -151z" />
    <glyph glyph-name="onesuperior" unicode="&#xb9;" horiz-adv-x="262" 
d="M135 681h-88l24 49h113v-584h-49v535z" />
    <glyph glyph-name="ordmasculine" unicode="&#xba;" horiz-adv-x="424" 
d="M28 382h375v-48h-375v48zM212 401q-41 0 -76 15t-60.5 40.5t-40.5 60.5t-15 76q0 40 15 75t41 61t61 41t75 15t75.5 -15t61 -40.5t40.5 -61t15 -75.5t-15 -75t-41 -61t-61 -41t-75 -15zM212 449q30 0 56 11t45.5 30.5t31 46t11.5 56.5t-11.5 56t-31 45.5t-45.5 31
t-56 11.5t-56.5 -11.5t-46 -31t-30.5 -45.5t-11 -56t11 -56.5t30.5 -46t46 -30.5t56.5 -11z" />
    <glyph glyph-name="guillemotright" unicode="&#xbb;" horiz-adv-x="407" 
d="M71 -9l-51 35l141 204l-141 204l51 35l166 -239zM221 -9l-51 35l141 204l-141 204l51 35l166 -239z" />
    <glyph glyph-name="onequarter" unicode="&#xbc;" horiz-adv-x="942" 
d="M769 100h-304l352 502v-453h85l-24 -49h-61v-100h-48v100zM769 149v299l-211 -299h211zM191 9l434 744l36 -19l-434 -743zM138 681h-88l24 49h113v-584h-49v535z" />
    <glyph glyph-name="onehalf" unicode="&#xbd;" horiz-adv-x="1017" 
d="M191 9l434 744l36 -19l-434 -743zM138 681h-88l24 49h113v-584h-49v535zM799 242q52 54 78 92.5t26 80.5q0 24 -10.5 47t-29.5 41.5t-44.5 29.5t-55.5 11q-48 0 -85.5 -26.5t-54.5 -71.5l-43 23q23 55 71.5 89t111.5 34q40 0 74.5 -14.5t60 -39.5t39.5 -57t14 -66
q0 -30 -7.5 -55t-22.5 -49.5t-37.5 -50t-52.5 -56.5l-154 -156h290l-24 -48h-380z" />
    <glyph glyph-name="threequarters" unicode="&#xbe;" horiz-adv-x="1069" 
d="M896 100h-304l352 502v-453h85l-24 -49h-61v-100h-48v100zM223 141q-64 0 -112.5 34t-70.5 89l43 23q17 -45 54.5 -71.5t85.5 -26.5q30 0 56 12t45.5 32t31 47t11.5 57t-11 54.5t-29.5 41.5t-44 26.5t-53.5 9.5h-44l24 48h17q17 0 32 7.5t26.5 20t18 29t6.5 33.5
q0 18 -7 33.5t-18.5 27.5t-27 18.5t-33.5 6.5q-37 0 -59 -18.5t-32 -50.5l-45 19q14 40 47.5 69t88.5 29q28 0 52.5 -10.5t42.5 -28.5t28.5 -42.5t10.5 -52.5q0 -32 -14 -62t-47 -47q55 -14 87 -58.5t32 -102.5q0 -40 -15 -75.5t-41 -62.5t-61 -42.5t-75 -15.5zM348 9
l434 744l36 -19l-434 -743zM896 149v299l-211 -299h211z" />
    <glyph glyph-name="questiondown" unicode="&#xbf;" horiz-adv-x="449" 
d="M230 -10q-43 0 -79.5 14t-63.5 38.5t-42 57.5t-15 72q0 44 16 76.5t40.5 55.5t53 37.5t53.5 22.5v191h62v-232q-73 -15 -118 -50t-45 -102q0 -28 11.5 -50.5t31 -38t44.5 -24t51 -8.5q46 0 81 23.5t55 66.5l53 -29q-11 -24 -29 -45.5t-42 -38.5t-54 -27t-64 -10zM224 668
q-17 0 -29.5 12.5t-12.5 29.5t12.5 29.5t29.5 12.5t29.5 -12.5t12.5 -29.5t-12.5 -29.5t-29.5 -12.5z" />
    <glyph glyph-name="Agrave" unicode="&#xc0;" horiz-adv-x="654" 
d="M1 4l325 746l325 -746l-55 -24l-116 266h-308l-116 -266zM453 307l-127 292l-128 -292h255zM165 926l64 34l123 -164l-24 -21z" />
    <glyph glyph-name="Aacute" unicode="&#xc1;" horiz-adv-x="654" 
d="M1 4l325 746l325 -746l-55 -24l-116 266h-308l-116 -266zM453 307l-127 292l-128 -292h255zM303 794l125 166l62 -35l-162 -151z" />
    <glyph glyph-name="Acircumflex" unicode="&#xc2;" horiz-adv-x="654" 
d="M1 4l325 746l325 -746l-55 -24l-116 266h-308l-116 -266zM453 307l-127 292l-128 -292h255zM170 789l156 151l157 -151l-20 -25l-137 94l-136 -94z" />
    <glyph glyph-name="Atilde" unicode="&#xc3;" horiz-adv-x="654" 
d="M1 4l325 746l325 -746l-55 -24l-116 266h-308l-116 -266zM453 307l-127 292l-128 -292h255zM155 813q8 11 17 23.5t21 23t28 17t37 6.5q26 0 45 -8.5t34.5 -18t29.5 -18t32 -8.5q22 0 37.5 15.5t26.5 32.5l41 -30q-19 -32 -44.5 -53t-67.5 -21q-21 0 -38 8.5t-33.5 18.5
t-33 18.5t-36.5 8.5q-10 0 -20 -7.5t-18 -15.5q-10 -11 -19 -23z" />
    <glyph glyph-name="Adieresis" unicode="&#xc4;" horiz-adv-x="654" 
d="M1 4l325 746l325 -746l-55 -24l-116 266h-308l-116 -266zM453 307l-127 292l-128 -292h255zM252 766q-17 0 -29.5 12.5t-12.5 29.5t12.5 29.5t29.5 12.5t29.5 -12.5t12.5 -29.5t-12.5 -29.5t-29.5 -12.5zM402 766q-17 0 -29.5 12.5t-12.5 29.5t12.5 29.5t29.5 12.5
t29.5 -12.5t12.5 -29.5t-12.5 -29.5t-29.5 -12.5z" />
    <glyph glyph-name="Aring" unicode="&#xc5;" horiz-adv-x="654" 
d="M1 4l325 746l325 -746l-55 -24l-116 266h-308l-116 -266zM453 307l-127 292l-128 -292h255zM325 754q-38 0 -64 26t-26 64t26 64.5t64 26.5q19 0 35.5 -7t29 -19.5t19.5 -29t7 -35.5t-7 -35.5t-19.5 -28.5t-29 -19t-35.5 -7zM324 795q20 0 35 14.5t15 34.5t-15 35t-35 15
t-34 -15t-14 -35t14 -34.5t34 -14.5z" />
    <glyph glyph-name="AE" unicode="&#xc6;" horiz-adv-x="931" 
d="M10 14l448 716h452l-30 -60h-332v-270h323v-60h-323v-280h342v-60h-403v246h-261l-165 -265zM487 306v360l-223 -360h223z" />
    <glyph glyph-name="Ccedilla" unicode="&#xc7;" horiz-adv-x="664" 
d="M401 -10q-79 0 -148.5 29.5t-121 80.5t-81.5 119.5t-30 147.5t30 147t81.5 118.5t120.5 79t148 28.5q73 0 138 -23.5t116 -67.5l-38 -50q-43 36 -98.5 58.5t-118.5 22.5q-66 0 -124 -24t-100.5 -66.5t-67 -99.5t-24.5 -123t24.5 -124t67 -101t100 -67.5t123.5 -24.5
q63 0 121.5 24t103.5 65l39 -49q-50 -45 -119 -72.5t-142 -27.5zM280 -177l125 166l62 -35l-163 -151z" />
    <glyph glyph-name="Egrave" unicode="&#xc8;" horiz-adv-x="473" 
d="M50 730h423l-30 -60h-332v-270h323v-60h-323v-280h342v-60h-403v730zM125 926l64 34l123 -164l-24 -21z" />
    <glyph glyph-name="Eacute" unicode="&#xc9;" horiz-adv-x="473" 
d="M50 730h423l-30 -60h-332v-270h323v-60h-323v-280h342v-60h-403v730zM206 794l125 166l62 -35l-162 -151z" />
    <glyph glyph-name="Ecircumflex" unicode="&#xca;" horiz-adv-x="473" 
d="M50 730h423l-30 -60h-332v-270h323v-60h-323v-280h342v-60h-403v730zM105 799l156 151l157 -151l-20 -25l-137 94l-136 -94z" />
    <glyph glyph-name="Edieresis" unicode="&#xcb;" horiz-adv-x="473" 
d="M50 730h423l-30 -60h-332v-270h323v-60h-323v-280h342v-60h-403v730zM182 775q-17 0 -29.5 12.5t-12.5 29.5t12.5 29.5t29.5 12.5t29.5 -12.5t12.5 -29.5t-12.5 -29.5t-29.5 -12.5zM332 775q-17 0 -29.5 12.5t-12.5 29.5t12.5 29.5t29.5 12.5t29.5 -12.5t12.5 -29.5
t-12.5 -29.5t-29.5 -12.5z" />
    <glyph glyph-name="Igrave" unicode="&#xcc;" horiz-adv-x="161" 
d="M50 730h61v-730h-61v730zM-50 926l64 34l123 -164l-24 -21z" />
    <glyph glyph-name="Iacute" unicode="&#xcd;" horiz-adv-x="161" 
d="M50 730h61v-730h-61v730zM26 794l125 166l62 -35l-162 -151z" />
    <glyph glyph-name="Icircumflex" unicode="&#xce;" horiz-adv-x="161" 
d="M50 730h61v-730h-61v730zM-75 789l156 151l157 -151l-20 -25l-137 94l-136 -94z" />
    <glyph glyph-name="Idieresis" unicode="&#xcf;" horiz-adv-x="161" 
d="M50 730h61v-730h-61v730zM7 775q-17 0 -29.5 12.5t-12.5 29.5t12.5 29.5t29.5 12.5t29.5 -12.5t12.5 -29.5t-12.5 -29.5t-29.5 -12.5zM157 775q-17 0 -29.5 12.5t-12.5 29.5t12.5 29.5t29.5 12.5t29.5 -12.5t12.5 -29.5t-12.5 -29.5t-29.5 -12.5z" />
    <glyph glyph-name="Eth" unicode="&#xd0;" horiz-adv-x="633" 
d="M50 350h-50v61h50v319h160h41t40 -2q73 -7 132.5 -34t101.5 -73t65 -110t23 -145q0 -82 -25.5 -145t-69 -108t-101.5 -72t-124 -37q-17 -3 -39 -3.5t-40 -0.5h-164v350zM219 60q18 0 40.5 2t39.5 5q53 10 99 33.5t79.5 60.5t53 88t19.5 117q0 67 -19 120.5t-53.5 92
t-82 61t-104.5 28.5q-15 2 -37.5 2h-38.5h-104v-259h168v-61h-168v-290h108z" />
    <glyph glyph-name="Ntilde" unicode="&#xd1;" horiz-adv-x="701" 
d="M50 750l540 -607v587h61v-750l-540 609v-589h-61v750zM195 803q8 11 17 23.5t21 23t28 17t37 6.5q26 0 45 -8.5t34.5 -18t29.5 -18t32 -8.5q22 0 37.5 15.5t26.5 32.5l41 -30q-19 -32 -44.5 -53t-67.5 -21q-21 0 -38 8.5t-33.5 18.5t-33 18.5t-36.5 8.5q-10 0 -20 -7.5
t-18 -15.5q-10 -11 -19 -23z" />
    <glyph glyph-name="Ograve" unicode="&#xd2;" horiz-adv-x="801" 
d="M400 -10q-79 0 -147.5 29t-119 79t-79.5 118.5t-29 147.5q0 78 29.5 146.5t80 119.5t119 80.5t146.5 29.5t146.5 -29t119.5 -80t80.5 -119.5t29.5 -147.5q0 -78 -29.5 -146t-80.5 -119t-119.5 -80t-146.5 -29zM399 50q64 0 121 24.5t99.5 67.5t67 99.5t24.5 121.5
q0 66 -23.5 123.5t-65.5 100.5t-99 68t-124 25q-65 0 -121.5 -25.5t-99 -68.5t-67 -101t-24.5 -122q0 -66 24 -123t66 -99t99 -66.5t123 -24.5zM239 926l64 34l123 -164l-24 -21z" />
    <glyph glyph-name="Oacute" unicode="&#xd3;" horiz-adv-x="801" 
d="M400 -10q-79 0 -147.5 29t-119 79t-79.5 118.5t-29 147.5q0 78 29.5 146.5t80 119.5t119 80.5t146.5 29.5t146.5 -29t119.5 -80t80.5 -119.5t29.5 -147.5q0 -78 -29.5 -146t-80.5 -119t-119.5 -80t-146.5 -29zM399 50q64 0 121 24.5t99.5 67.5t67 99.5t24.5 121.5
q0 66 -23.5 123.5t-65.5 100.5t-99 68t-124 25q-65 0 -121.5 -25.5t-99 -68.5t-67 -101t-24.5 -122q0 -66 24 -123t66 -99t99 -66.5t123 -24.5zM374 794l125 166l62 -35l-162 -151z" />
    <glyph glyph-name="Ocircumflex" unicode="&#xd4;" horiz-adv-x="801" 
d="M400 -10q-79 0 -147.5 29t-119 79t-79.5 118.5t-29 147.5q0 78 29.5 146.5t80 119.5t119 80.5t146.5 29.5t146.5 -29t119.5 -80t80.5 -119.5t29.5 -147.5q0 -78 -29.5 -146t-80.5 -119t-119.5 -80t-146.5 -29zM399 50q64 0 121 24.5t99.5 67.5t67 99.5t24.5 121.5
q0 66 -23.5 123.5t-65.5 100.5t-99 68t-124 25q-65 0 -121.5 -25.5t-99 -68.5t-67 -101t-24.5 -122q0 -66 24 -123t66 -99t99 -66.5t123 -24.5zM241 789l156 151l157 -151l-20 -25l-137 94l-136 -94z" />
    <glyph glyph-name="Otilde" unicode="&#xd5;" horiz-adv-x="801" 
d="M400 -10q-79 0 -147.5 29t-119 79t-79.5 118.5t-29 147.5q0 78 29.5 146.5t80 119.5t119 80.5t146.5 29.5t146.5 -29t119.5 -80t80.5 -119.5t29.5 -147.5q0 -78 -29.5 -146t-80.5 -119t-119.5 -80t-146.5 -29zM399 50q64 0 121 24.5t99.5 67.5t67 99.5t24.5 121.5
q0 66 -23.5 123.5t-65.5 100.5t-99 68t-124 25q-65 0 -121.5 -25.5t-99 -68.5t-67 -101t-24.5 -122q0 -66 24 -123t66 -99t99 -66.5t123 -24.5zM226 813q8 11 17 23.5t21 23t28 17t37 6.5q26 0 45 -8.5t34.5 -18t29.5 -18t32 -8.5q22 0 37.5 15.5t26.5 32.5l41 -30
q-19 -32 -44.5 -53t-67.5 -21q-21 0 -38 8.5t-33.5 18.5t-33 18.5t-36.5 8.5q-10 0 -20 -7.5t-18 -15.5q-10 -11 -19 -23z" />
    <glyph glyph-name="Odieresis" unicode="&#xd6;" horiz-adv-x="801" 
d="M400 -10q-79 0 -147.5 29t-119 79t-79.5 118.5t-29 147.5q0 78 29.5 146.5t80 119.5t119 80.5t146.5 29.5t146.5 -29t119.5 -80t80.5 -119.5t29.5 -147.5q0 -78 -29.5 -146t-80.5 -119t-119.5 -80t-146.5 -29zM399 50q64 0 121 24.5t99.5 67.5t67 99.5t24.5 121.5
q0 66 -23.5 123.5t-65.5 100.5t-99 68t-124 25q-65 0 -121.5 -25.5t-99 -68.5t-67 -101t-24.5 -122q0 -66 24 -123t66 -99t99 -66.5t123 -24.5zM325 776q-17 0 -29.5 12.5t-12.5 29.5t12.5 29.5t29.5 12.5t29.5 -12.5t12.5 -29.5t-12.5 -29.5t-29.5 -12.5zM475 776
q-17 0 -29.5 12.5t-12.5 29.5t12.5 29.5t29.5 12.5t29.5 -12.5t12.5 -29.5t-12.5 -29.5t-29.5 -12.5z" />
    <glyph glyph-name="multiply" unicode="&#xd7;" horiz-adv-x="580" 
d="M88 69l158 158l-158 159l43 44l159 -159l159 159l43 -44l-159 -159l159 -158l-44 -43l-158 158l-158 -158z" />
    <glyph glyph-name="Oslash" unicode="&#xd8;" horiz-adv-x="801" 
d="M46 13l81 91q-48 50 -75 116t-27 144t29.5 146.5t80 119.5t119 80.5t146.5 29.5q66 0 124 -20.5t106 -57.5l84 94l46 -41l-85 -94q48 -51 74.5 -116.5t26.5 -140.5q0 -78 -29.5 -146t-80.5 -119t-119.5 -80t-146.5 -29q-65 0 -122 19t-105 54l-81 -90zM588 616
q-39 30 -87 47t-102 17q-65 0 -121.5 -25.5t-99 -68.5t-67 -101t-24.5 -122q0 -63 21.5 -117t59.5 -96zM214 109q39 -28 85.5 -43.5t99.5 -15.5q64 0 121 24.5t99.5 67.5t67 99.5t24.5 121.5q0 61 -20.5 115t-57.5 96z" />
    <glyph glyph-name="Ugrave" unicode="&#xd9;" horiz-adv-x="633" 
d="M317 -10q-50 0 -95.5 16t-80.5 44t-58.5 67t-30.5 86q-2 12 -2 29v30v468h61v-467v-26t2 -25q5 -35 22.5 -65t44.5 -51.5t62 -33.5t75 -12t75 12t62 33.5t44.5 51.5t22.5 65q2 10 2 25v26v467h61v-468v-30t-2 -29q-7 -47 -30.5 -86t-58.5 -67t-80.5 -44t-95.5 -16z
M181 926l64 34l123 -164l-24 -21z" />
    <glyph glyph-name="Uacute" unicode="&#xda;" horiz-adv-x="633" 
d="M317 -10q-50 0 -95.5 16t-80.5 44t-58.5 67t-30.5 86q-2 12 -2 29v30v468h61v-467v-26t2 -25q5 -35 22.5 -65t44.5 -51.5t62 -33.5t75 -12t75 12t62 33.5t44.5 51.5t22.5 65q2 10 2 25v26v467h61v-468v-30t-2 -29q-7 -47 -30.5 -86t-58.5 -67t-80.5 -44t-95.5 -16z
M294 794l125 166l62 -35l-162 -151z" />
    <glyph glyph-name="Ucircumflex" unicode="&#xdb;" horiz-adv-x="633" 
d="M317 -10q-50 0 -95.5 16t-80.5 44t-58.5 67t-30.5 86q-2 12 -2 29v30v468h61v-467v-26t2 -25q5 -35 22.5 -65t44.5 -51.5t62 -33.5t75 -12t75 12t62 33.5t44.5 51.5t22.5 65q2 10 2 25v26v467h61v-468v-30t-2 -29q-7 -47 -30.5 -86t-58.5 -67t-80.5 -44t-95.5 -16z
M165 789l156 151l157 -151l-20 -25l-137 94l-136 -94z" />
    <glyph glyph-name="Udieresis" unicode="&#xdc;" horiz-adv-x="633" 
d="M317 -10q-50 0 -95.5 16t-80.5 44t-58.5 67t-30.5 86q-2 12 -2 29v30v468h61v-467v-26t2 -25q5 -35 22.5 -65t44.5 -51.5t62 -33.5t75 -12t75 12t62 33.5t44.5 51.5t22.5 65q2 10 2 25v26v467h61v-468v-30t-2 -29q-7 -47 -30.5 -86t-58.5 -67t-80.5 -44t-95.5 -16z
M244 756q-17 0 -29.5 12.5t-12.5 29.5t12.5 29.5t29.5 12.5t29.5 -12.5t12.5 -29.5t-12.5 -29.5t-29.5 -12.5zM394 756q-17 0 -29.5 12.5t-12.5 29.5t12.5 29.5t29.5 12.5t29.5 -12.5t12.5 -29.5t-12.5 -29.5t-29.5 -12.5z" />
    <glyph glyph-name="Yacute" unicode="&#xdd;" horiz-adv-x="535" 
d="M237 311l-229 409l53 30l206 -369l209 369l53 -30l-231 -408v-312h-61v311zM256 784l125 166l62 -35l-162 -151z" />
    <glyph glyph-name="Thorn" unicode="&#xde;" horiz-adv-x="488" 
d="M50 730h61v-170h176q11 0 22 -1t22 -3q63 -11 105 -55.5t42 -122.5q0 -39 -11.5 -71.5t-32 -57t-47.5 -41t-57 -22.5q-11 -2 -26.5 -3t-27.5 -1h-165v-182h-61v730zM254 243q6 0 16 0.5t21 1t21 1.5t15 3q39 12 64 46t25 82t-26.5 80t-69.5 40q-17 3 -33 3h-176v-257h143
z" />
    <glyph glyph-name="germandbls" unicode="&#xdf;" horiz-adv-x="467" 
d="M60 400h-39v60h39v110q0 37 11.5 68t32.5 53.5t50 35.5t63 13q35 0 65.5 -13t53 -35.5t35.5 -53t13 -65.5q0 -40 -17.5 -78t-58.5 -59q69 -24 109 -76.5t40 -124.5q0 -50 -19 -94t-51.5 -78t-76.5 -53.5t-93 -19.5v60q37 0 70 15t57.5 40t38.5 58.5t14 71.5
q0 37 -13.5 67.5t-37 52.5t-55 33.5t-67.5 11.5h-54l30 60h21q21 1 40 10.5t33 25t22 35.5t8 42t-8.5 41.5t-23 34t-34 23t-41.5 8.5q-46 0 -71 -30.5t-25 -79.5v-570h-61v400z" />
    <glyph glyph-name="agrave" unicode="&#xe0;" 
d="M259 -9q-50 0 -94 18.5t-76 51t-50.5 76.5t-18.5 94t18.5 94t50.5 76.5t76 51t94 18.5q55 0 100.5 -24.5t74.5 -66.5v81h61v-461h-61v80q-34 -46 -77 -67.5t-98 -21.5zM260 51q39 0 71.5 13.5t56 37.5t37 57t13.5 72q0 37 -14 70t-38 57.5t-56.5 38.5t-69.5 14
q-38 0 -70.5 -14t-57 -38.5t-38.5 -57.5t-14 -70q0 -38 14 -70.5t38.5 -57t57 -38.5t70.5 -14zM170 686l64 34l123 -164l-24 -21z" />
    <glyph glyph-name="aacute" unicode="&#xe1;" 
d="M259 -9q-50 0 -94 18.5t-76 51t-50.5 76.5t-18.5 94t18.5 94t50.5 76.5t76 51t94 18.5q55 0 100.5 -24.5t74.5 -66.5v81h61v-461h-61v80q-34 -46 -77 -67.5t-98 -21.5zM260 51q39 0 71.5 13.5t56 37.5t37 57t13.5 72q0 37 -14 70t-38 57.5t-56.5 38.5t-69.5 14
q-38 0 -70.5 -14t-57 -38.5t-38.5 -57.5t-14 -70q0 -38 14 -70.5t38.5 -57t57 -38.5t70.5 -14zM221 554l125 166l62 -35l-162 -151z" />
    <glyph glyph-name="acircumflex" unicode="&#xe2;" 
d="M259 -9q-50 0 -94 18.5t-76 51t-50.5 76.5t-18.5 94t18.5 94t50.5 76.5t76 51t94 18.5q55 0 100.5 -24.5t74.5 -66.5v81h61v-461h-61v80q-34 -46 -77 -67.5t-98 -21.5zM260 51q39 0 71.5 13.5t56 37.5t37 57t13.5 72q0 37 -14 70t-38 57.5t-56.5 38.5t-69.5 14
q-38 0 -70.5 -14t-57 -38.5t-38.5 -57.5t-14 -70q0 -38 14 -70.5t38.5 -57t57 -38.5t70.5 -14zM123 559l156 151l157 -151l-20 -25l-137 94l-136 -94z" />
    <glyph glyph-name="atilde" unicode="&#xe3;" 
d="M259 -9q-50 0 -94 18.5t-76 51t-50.5 76.5t-18.5 94t18.5 94t50.5 76.5t76 51t94 18.5q55 0 100.5 -24.5t74.5 -66.5v81h61v-461h-61v80q-34 -46 -77 -67.5t-98 -21.5zM260 51q39 0 71.5 13.5t56 37.5t37 57t13.5 72q0 37 -14 70t-38 57.5t-56.5 38.5t-69.5 14
q-38 0 -70.5 -14t-57 -38.5t-38.5 -57.5t-14 -70q0 -38 14 -70.5t38.5 -57t57 -38.5t70.5 -14zM105 573q8 11 17 23.5t21 23t28 17t37 6.5q26 0 45 -8.5t34.5 -18t29.5 -18t32 -8.5q22 0 37.5 15.5t26.5 32.5l41 -30q-19 -32 -44.5 -53t-67.5 -21q-21 0 -38 8.5t-33.5 18.5
t-33 18.5t-36.5 8.5q-10 0 -20 -7.5t-18 -15.5q-10 -11 -19 -23z" />
    <glyph glyph-name="adieresis" unicode="&#xe4;" 
d="M259 -9q-50 0 -94 18.5t-76 51t-50.5 76.5t-18.5 94t18.5 94t50.5 76.5t76 51t94 18.5q55 0 100.5 -24.5t74.5 -66.5v81h61v-461h-61v80q-34 -46 -77 -67.5t-98 -21.5zM260 51q39 0 71.5 13.5t56 37.5t37 57t13.5 72q0 37 -14 70t-38 57.5t-56.5 38.5t-69.5 14
q-38 0 -70.5 -14t-57 -38.5t-38.5 -57.5t-14 -70q0 -38 14 -70.5t38.5 -57t57 -38.5t70.5 -14zM206 526q-17 0 -29.5 12.5t-12.5 29.5t12.5 29.5t29.5 12.5t29.5 -12.5t12.5 -29.5t-12.5 -29.5t-29.5 -12.5zM356 526q-17 0 -29.5 12.5t-12.5 29.5t12.5 29.5t29.5 12.5
t29.5 -12.5t12.5 -29.5t-12.5 -29.5t-29.5 -12.5z" />
    <glyph glyph-name="aring" unicode="&#xe5;" 
d="M259 -9q-50 0 -94 18.5t-76 51t-50.5 76.5t-18.5 94t18.5 94t50.5 76.5t76 51t94 18.5q55 0 100.5 -24.5t74.5 -66.5v81h61v-461h-61v80q-34 -46 -77 -67.5t-98 -21.5zM260 51q39 0 71.5 13.5t56 37.5t37 57t13.5 72q0 37 -14 70t-38 57.5t-56.5 38.5t-69.5 14
q-38 0 -70.5 -14t-57 -38.5t-38.5 -57.5t-14 -70q0 -38 14 -70.5t38.5 -57t57 -38.5t70.5 -14zM280 535q-38 0 -64 26t-26 64t26 64.5t64 26.5q19 0 35.5 -7t29 -19.5t19.5 -29t7 -35.5t-7 -35.5t-19.5 -28.5t-29 -19t-35.5 -7zM279 576q20 0 35 14.5t15 34.5t-15 35t-35 15
t-34 -15t-14 -35t14 -34.5t34 -14.5z" />
    <glyph glyph-name="ae" unicode="&#xe6;" horiz-adv-x="864" 
d="M231 -10q-38 0 -70.5 14t-57.5 39t-39 57.5t-14 70.5q0 37 14 70.5t39 58t57.5 39t70.5 14.5q35 0 68 -13t55 -42v102h-195v60h256v-72q33 38 79 60t100 22q52 0 94.5 -18.5t73.5 -51.5t48 -77.5t17 -96.5v-13h-412q3 -34 18.5 -63.5t39.5 -51.5t55 -35t66 -13
q59 0 96.5 23.5t66.5 57.5l45 -42q-36 -41 -85.5 -70t-122.5 -29q-63 0 -116 30.5t-85 77.5q-14 -33 -34.5 -54t-43 -33t-44.5 -16.5t-40 -4.5zM231 46q26 0 49 10t40 27t27 39.5t10 48.5q0 27 -9.5 50t-26.5 40t-40 26.5t-50 9.5q-26 0 -48.5 -10t-39.5 -27t-27 -40
t-10 -49q0 -27 9.5 -50t26 -39.5t39.5 -26t50 -9.5zM758 274q-10 59 -52 97.5t-112 38.5q-32 0 -60 -10.5t-51 -28.5t-39.5 -43t-23.5 -54h338z" />
    <glyph glyph-name="ccedilla" unicode="&#xe7;" horiz-adv-x="444" 
d="M263 -10q-51 0 -94.5 18.5t-76 51t-51 76t-18.5 94.5q0 49 19 93t51.5 76.5t76 51.5t93.5 19q51 0 95 -18.5t76 -50.5l-41 -46q-25 26 -58.5 40.5t-71.5 14.5t-70.5 -14t-57 -38.5t-38.5 -57.5t-14 -70q0 -38 14 -70.5t38.5 -57t57 -38.5t70.5 -14q42 0 77 17t60 46
l44 -40q-33 -38 -80 -60.5t-101 -22.5zM139 -178l125 166l62 -35l-163 -151z" />
    <glyph glyph-name="egrave" unicode="&#xe8;" horiz-adv-x="523" 
d="M263 -10q-51 0 -94.5 18.5t-76 51t-51 76t-18.5 94.5q0 49 19 93t51.5 76.5t76 51.5t93.5 19q52 0 94.5 -18.5t73.5 -51.5t48 -77.5t17 -96.5v-13h-412q3 -34 18.5 -63.5t39.5 -51.5t55 -35t66 -13q59 0 96.5 23.5t66.5 57.5l45 -42q-36 -41 -85.5 -70t-122.5 -29z
M427 274q-10 59 -52 97.5t-112 38.5q-32 0 -60 -10.5t-51 -28.5t-39.5 -43t-23.5 -54h338zM155 686l64 34l123 -164l-24 -21z" />
    <glyph glyph-name="eacute" unicode="&#xe9;" horiz-adv-x="523" 
d="M263 -10q-51 0 -94.5 18.5t-76 51t-51 76t-18.5 94.5q0 49 19 93t51.5 76.5t76 51.5t93.5 19q52 0 94.5 -18.5t73.5 -51.5t48 -77.5t17 -96.5v-13h-412q3 -34 18.5 -63.5t39.5 -51.5t55 -35t66 -13q59 0 96.5 23.5t66.5 57.5l45 -42q-36 -41 -85.5 -70t-122.5 -29z
M427 274q-10 59 -52 97.5t-112 38.5q-32 0 -60 -10.5t-51 -28.5t-39.5 -43t-23.5 -54h338zM236 554l125 166l62 -35l-162 -151z" />
    <glyph glyph-name="ecircumflex" unicode="&#xea;" horiz-adv-x="523" 
d="M263 -10q-51 0 -94.5 18.5t-76 51t-51 76t-18.5 94.5q0 49 19 93t51.5 76.5t76 51.5t93.5 19q52 0 94.5 -18.5t73.5 -51.5t48 -77.5t17 -96.5v-13h-412q3 -34 18.5 -63.5t39.5 -51.5t55 -35t66 -13q59 0 96.5 23.5t66.5 57.5l45 -42q-36 -41 -85.5 -70t-122.5 -29z
M427 274q-10 59 -52 97.5t-112 38.5q-32 0 -60 -10.5t-51 -28.5t-39.5 -43t-23.5 -54h338zM113 559l156 151l157 -151l-20 -25l-137 94l-136 -94z" />
    <glyph glyph-name="edieresis" unicode="&#xeb;" horiz-adv-x="523" 
d="M263 -10q-51 0 -94.5 18.5t-76 51t-51 76t-18.5 94.5q0 49 19 93t51.5 76.5t76 51.5t93.5 19q52 0 94.5 -18.5t73.5 -51.5t48 -77.5t17 -96.5v-13h-412q3 -34 18.5 -63.5t39.5 -51.5t55 -35t66 -13q59 0 96.5 23.5t66.5 57.5l45 -42q-36 -41 -85.5 -70t-122.5 -29z
M427 274q-10 59 -52 97.5t-112 38.5q-32 0 -60 -10.5t-51 -28.5t-39.5 -43t-23.5 -54h338zM190 526q-17 0 -29.5 12.5t-12.5 29.5t12.5 29.5t29.5 12.5t29.5 -12.5t12.5 -29.5t-12.5 -29.5t-29.5 -12.5zM340 526q-17 0 -29.5 12.5t-12.5 29.5t12.5 29.5t29.5 12.5
t29.5 -12.5t12.5 -29.5t-12.5 -29.5t-29.5 -12.5z" />
    <glyph glyph-name="igrave" unicode="&#xec;" horiz-adv-x="161" 
d="M50 460h61v-460h-61v460zM-61 686l64 34l123 -164l-24 -21z" />
    <glyph glyph-name="iacute" unicode="&#xed;" horiz-adv-x="161" 
d="M50 460h61v-460h-61v460zM46 554l125 166l62 -35l-162 -151z" />
    <glyph glyph-name="icircumflex" unicode="&#xee;" horiz-adv-x="161" 
d="M50 460h61v-460h-61v460zM-75 559l156 151l157 -151l-20 -25l-137 94l-136 -94z" />
    <glyph glyph-name="idieresis" unicode="&#xef;" horiz-adv-x="161" 
d="M50 460h61v-460h-61v460zM7 526q-17 0 -29.5 12.5t-12.5 29.5t12.5 29.5t29.5 12.5t29.5 -12.5t12.5 -29.5t-12.5 -29.5t-29.5 -12.5zM157 526q-17 0 -29.5 12.5t-12.5 29.5t12.5 29.5t29.5 12.5t29.5 -12.5t12.5 -29.5t-12.5 -29.5t-29.5 -12.5z" />
    <glyph glyph-name="eth" unicode="&#xf0;" 
d="M262 -10q-49 0 -92.5 19t-76 52t-51.5 76.5t-19 92.5q0 51 18 95t50 76.5t76 50.5t95 18q55 0 98 -21.5t77 -67.5v154h-171v61h171v179h61v-179h47v-61h-47v-535h-61v81q-32 -42 -76 -66.5t-99 -24.5zM263 50q37 0 70 14t57.5 38.5t38.5 57t14 70.5q0 39 -13.5 72
t-37.5 57t-57 37.5t-72 13.5t-72 -13.5t-57 -37.5t-37.5 -57t-13.5 -72q0 -38 14 -70.5t38.5 -57t57 -38.5t70.5 -14z" />
    <glyph glyph-name="ntilde" unicode="&#xf1;" horiz-adv-x="511" 
d="M50 460h61v-79q32 45 71.5 67t93.5 22q41 0 74 -13t57 -37t39 -57t21 -72q2 -14 3 -29.5t1 -31.5v-230h-61v230q0 11 -0.5 25t-2.5 26q-8 57 -40 93t-92 36q-37 0 -67 -13.5t-51.5 -37.5t-33.5 -57t-12 -72v-230h-61v460zM87 573q8 11 17 23.5t21 23t28 17t37 6.5
q26 0 45 -8.5t34.5 -18t29.5 -18t32 -8.5q22 0 37.5 15.5t26.5 32.5l41 -30q-19 -32 -44.5 -53t-67.5 -21q-21 0 -38 8.5t-33.5 18.5t-33 18.5t-36.5 8.5q-10 0 -20 -7.5t-18 -15.5q-10 -11 -19 -23z" />
    <glyph glyph-name="ograve" unicode="&#xf2;" horiz-adv-x="526" 
d="M263 -10q-51 0 -94.5 18.5t-76 51t-51 76t-18.5 94.5q0 49 19 93t51.5 76.5t76 51.5t93.5 19q51 0 94.5 -18.5t76 -51t51 -76t18.5 -94.5q0 -50 -19 -93.5t-51.5 -76t-76.5 -51.5t-93 -19zM263 50q37 0 70 14t57.5 38.5t38.5 57t14 70.5q0 37 -14 70t-38.5 57.5
t-57.5 38.5t-70 14q-38 0 -70.5 -14t-57 -38.5t-38.5 -57.5t-14 -70q0 -38 14 -70.5t38.5 -57t57 -38.5t70.5 -14zM116 686l64 34l123 -164l-24 -21z" />
    <glyph glyph-name="oacute" unicode="&#xf3;" horiz-adv-x="526" 
d="M263 -10q-51 0 -94.5 18.5t-76 51t-51 76t-18.5 94.5q0 49 19 93t51.5 76.5t76 51.5t93.5 19q51 0 94.5 -18.5t76 -51t51 -76t18.5 -94.5q0 -50 -19 -93.5t-51.5 -76t-76.5 -51.5t-93 -19zM263 50q37 0 70 14t57.5 38.5t38.5 57t14 70.5q0 37 -14 70t-38.5 57.5
t-57.5 38.5t-70 14q-38 0 -70.5 -14t-57 -38.5t-38.5 -57.5t-14 -70q0 -38 14 -70.5t38.5 -57t57 -38.5t70.5 -14zM246 554l125 166l62 -35l-162 -151z" />
    <glyph glyph-name="ocircumflex" unicode="&#xf4;" horiz-adv-x="526" 
d="M263 -10q-51 0 -94.5 18.5t-76 51t-51 76t-18.5 94.5q0 49 19 93t51.5 76.5t76 51.5t93.5 19q51 0 94.5 -18.5t76 -51t51 -76t18.5 -94.5q0 -50 -19 -93.5t-51.5 -76t-76.5 -51.5t-93 -19zM263 50q37 0 70 14t57.5 38.5t38.5 57t14 70.5q0 37 -14 70t-38.5 57.5
t-57.5 38.5t-70 14q-38 0 -70.5 -14t-57 -38.5t-38.5 -57.5t-14 -70q0 -38 14 -70.5t38.5 -57t57 -38.5t70.5 -14zM106 559l156 151l157 -151l-20 -25l-137 94l-136 -94z" />
    <glyph glyph-name="otilde" unicode="&#xf5;" horiz-adv-x="526" 
d="M263 -10q-51 0 -94.5 18.5t-76 51t-51 76t-18.5 94.5q0 49 19 93t51.5 76.5t76 51.5t93.5 19q51 0 94.5 -18.5t76 -51t51 -76t18.5 -94.5q0 -50 -19 -93.5t-51.5 -76t-76.5 -51.5t-93 -19zM263 50q37 0 70 14t57.5 38.5t38.5 57t14 70.5q0 37 -14 70t-38.5 57.5
t-57.5 38.5t-70 14q-38 0 -70.5 -14t-57 -38.5t-38.5 -57.5t-14 -70q0 -38 14 -70.5t38.5 -57t57 -38.5t70.5 -14zM90 573q8 11 17 23.5t21 23t28 17t37 6.5q26 0 45 -8.5t34.5 -18t29.5 -18t32 -8.5q22 0 37.5 15.5t26.5 32.5l41 -30q-19 -32 -44.5 -53t-67.5 -21
q-21 0 -38 8.5t-33.5 18.5t-33 18.5t-36.5 8.5q-10 0 -20 -7.5t-18 -15.5q-10 -11 -19 -23z" />
    <glyph glyph-name="odieresis" unicode="&#xf6;" horiz-adv-x="526" 
d="M263 -10q-51 0 -94.5 18.5t-76 51t-51 76t-18.5 94.5q0 49 19 93t51.5 76.5t76 51.5t93.5 19q51 0 94.5 -18.5t76 -51t51 -76t18.5 -94.5q0 -50 -19 -93.5t-51.5 -76t-76.5 -51.5t-93 -19zM263 50q37 0 70 14t57.5 38.5t38.5 57t14 70.5q0 37 -14 70t-38.5 57.5
t-57.5 38.5t-70 14q-38 0 -70.5 -14t-57 -38.5t-38.5 -57.5t-14 -70q0 -38 14 -70.5t38.5 -57t57 -38.5t70.5 -14zM189 526q-17 0 -29.5 12.5t-12.5 29.5t12.5 29.5t29.5 12.5t29.5 -12.5t12.5 -29.5t-12.5 -29.5t-29.5 -12.5zM339 526q-17 0 -29.5 12.5t-12.5 29.5
t12.5 29.5t29.5 12.5t29.5 -12.5t12.5 -29.5t-12.5 -29.5t-29.5 -12.5z" />
    <glyph glyph-name="divide" unicode="&#xf7;" horiz-adv-x="393" 
d="M200 -20q-19 0 -32 13t-13 32t13 32t32 13t32 -13t13 -32t-13 -32t-32 -13zM30 266h331v-62h-331v62zM200 380q-19 0 -32 13t-13 32t13 32t32 13t32 -13t13 -32t-13 -32t-32 -13z" />
    <glyph glyph-name="oslash" unicode="&#xf8;" horiz-adv-x="526" 
d="M26 13l54 60q-27 32 -42 71.5t-15 85.5q0 49 19 93t51.5 76.5t76 51.5t93.5 19q38 0 73 -11t64 -31l52 58l46 -41l-52 -58q26 -32 41.5 -72t15.5 -85q0 -50 -19 -93.5t-51.5 -76t-76.5 -51.5t-93 -19q-79 0 -138 42l-53 -59zM166 78q44 -28 97 -28q37 0 70 14t57.5 38.5
t38.5 57t14 70.5q0 32 -10.5 60t-28.5 51zM359 382q-44 28 -96 28q-38 0 -70.5 -14t-57 -38.5t-38.5 -57.5t-14 -70q0 -32 10 -60.5t28 -51.5z" />
    <glyph glyph-name="ugrave" unicode="&#xf9;" horiz-adv-x="492" 
d="M245 -10q-41 0 -76 13t-61 37t-43 57t-22 72q-2 14 -2.5 29.5t-0.5 31.5v230h61v-230q0 -11 0.5 -25t2.5 -26q8 -57 45 -93t97 -36t97 36t45 93q2 12 2.5 26t0.5 25v230h61v-230q0 -16 -0.5 -31.5t-2.5 -29.5q-5 -39 -22 -72t-43.5 -57t-61.5 -37t-77 -13zM105 686l64 34
l123 -164l-24 -21z" />
    <glyph glyph-name="uacute" unicode="&#xfa;" horiz-adv-x="492" 
d="M245 -10q-41 0 -76 13t-61 37t-43 57t-22 72q-2 14 -2.5 29.5t-0.5 31.5v230h61v-230q0 -11 0.5 -25t2.5 -26q8 -57 45 -93t97 -36t97 36t45 93q2 12 2.5 26t0.5 25v230h61v-230q0 -16 -0.5 -31.5t-2.5 -29.5q-5 -39 -22 -72t-43.5 -57t-61.5 -37t-77 -13zM216 554
l125 166l62 -35l-162 -151z" />
    <glyph glyph-name="ucircumflex" unicode="&#xfb;" horiz-adv-x="492" 
d="M245 -10q-41 0 -76 13t-61 37t-43 57t-22 72q-2 14 -2.5 29.5t-0.5 31.5v230h61v-230q0 -11 0.5 -25t2.5 -26q8 -57 45 -93t97 -36t97 36t45 93q2 12 2.5 26t0.5 25v230h61v-230q0 -16 -0.5 -31.5t-2.5 -29.5q-5 -39 -22 -72t-43.5 -57t-61.5 -37t-77 -13zM90 559
l156 151l157 -151l-20 -25l-137 94l-136 -94z" />
    <glyph glyph-name="udieresis" unicode="&#xfc;" horiz-adv-x="492" 
d="M245 -10q-41 0 -76 13t-61 37t-43 57t-22 72q-2 14 -2.5 29.5t-0.5 31.5v230h61v-230q0 -11 0.5 -25t2.5 -26q8 -57 45 -93t97 -36t97 36t45 93q2 12 2.5 26t0.5 25v230h61v-230q0 -16 -0.5 -31.5t-2.5 -29.5q-5 -39 -22 -72t-43.5 -57t-61.5 -37t-77 -13zM172 526
q-17 0 -29.5 12.5t-12.5 29.5t12.5 29.5t29.5 12.5t29.5 -12.5t12.5 -29.5t-12.5 -29.5t-29.5 -12.5zM322 526q-17 0 -29.5 12.5t-12.5 29.5t12.5 29.5t29.5 12.5t29.5 -12.5t12.5 -29.5t-12.5 -29.5t-29.5 -12.5z" />
    <glyph glyph-name="yacute" unicode="&#xfd;" horiz-adv-x="455" 
d="M96 -200l94 214l-189 446l56 24l167 -393l173 394l56 -25l-301 -685zM205 554l125 166l62 -35l-162 -151z" />
    <glyph glyph-name="thorn" unicode="&#xfe;" horiz-adv-x="549" 
d="M50 730h61v-350q29 42 74.5 66.5t100.5 24.5q51 0 95 -18t76 -50.5t50 -76.5t18 -95q0 -50 -18.5 -94t-51 -76.5t-76 -51t-93.5 -18.5q-55 0 -98 21.5t-77 67.5v-304h-61v954zM285 51q37 0 70 14t57.5 38.5t38.5 57t14 70.5q0 39 -13.5 72t-37.5 57t-57 37.5t-72 13.5
q-38 0 -70.5 -14t-57 -38.5t-38.5 -57.5t-14 -70q0 -39 13.5 -72t37.5 -57t57 -37.5t72 -13.5z" />
    <glyph glyph-name="ydieresis" unicode="&#xff;" horiz-adv-x="455" 
d="M96 -200l94 214l-189 446l56 24l167 -393l173 394l56 -25l-301 -685zM156 526q-17 0 -29.5 12.5t-12.5 29.5t12.5 29.5t29.5 12.5t29.5 -12.5t12.5 -29.5t-12.5 -29.5t-29.5 -12.5zM306 526q-17 0 -29.5 12.5t-12.5 29.5t12.5 29.5t29.5 12.5t29.5 -12.5t12.5 -29.5
t-12.5 -29.5t-29.5 -12.5z" />
    <glyph glyph-name="dotlessi" unicode="&#x131;" horiz-adv-x="161" 
d="M50 460h61v-460h-61v460z" />
    <glyph glyph-name="Lslash" unicode="&#x141;" horiz-adv-x="387" 
d="M50 253l-42 -42l-43 43l85 84v392h61v-331l52 52l43 -43l-95 -95v-253h291l-30 -60h-322v253z" />
    <glyph glyph-name="lslash" unicode="&#x142;" horiz-adv-x="161" 
d="M50 259l-48 -48l-43 43l91 90v432h61v-371l46 46l43 -43l-89 -89v-319h-61v259z" />
    <glyph glyph-name="OE" unicode="&#x152;" horiz-adv-x="1146" 
d="M400 -10q-79 0 -147.5 29t-119 79t-79.5 118.5t-29 147.5q0 78 29.5 146.5t80 119.5t119 80.5t146.5 29.5q100 0 180 -46t130 -124v160h423l-30 -60h-332v-270h323v-60h-323v-280h342v-60h-403v160q-50 -78 -130 -124t-180 -46zM399 50q64 0 121 24.5t99.5 67.5t67 99.5
t24.5 121.5q0 66 -23.5 123.5t-65.5 100.5t-99 68t-124 25q-65 0 -121.5 -25.5t-99 -68.5t-67 -101t-24.5 -122q0 -66 24 -123t66 -99t99 -66.5t123 -24.5z" />
    <glyph glyph-name="oe" unicode="&#x153;" horiz-adv-x="945" 
d="M263 -10q-51 0 -94.5 18.5t-76 51t-51 76t-18.5 94.5q0 49 19 93t51.5 76.5t76 51.5t93.5 19q69 0 125 -33.5t86 -90.5q31 56 86 90t123 34q52 0 94.5 -18.5t73.5 -51.5t48 -77.5t17 -96.5v-13h-412q3 -34 18.5 -63.5t39.5 -51.5t55 -35t66 -13q59 0 96.5 23.5t66.5 57.5
l45 -42q-36 -41 -85.5 -70t-122.5 -29q-70 0 -125.5 33.5t-85.5 90.5q-31 -56 -86 -90t-123 -34zM263 50q37 0 70 14t57.5 38.5t38.5 57t14 70.5q0 37 -14 70t-38.5 57.5t-57.5 38.5t-70 14q-38 0 -70.5 -14t-57 -38.5t-38.5 -57.5t-14 -70q0 -38 14 -70.5t38.5 -57
t57 -38.5t70.5 -14zM847 274q-10 59 -52 97.5t-112 38.5q-32 0 -60 -10.5t-51 -28.5t-39.5 -43t-23.5 -54h338z" />
    <glyph glyph-name="Scaron" unicode="&#x160;" horiz-adv-x="496" 
d="M247 -10q-80 0 -139.5 41t-87.5 110l54 29q20 -57 68 -88.5t107 -31.5q34 0 64.5 10.5t53 29t35.5 45.5t13 60q0 36 -15.5 61t-40 42.5t-56.5 31t-65.5 26.5t-65.5 29t-56.5 38.5t-40 55t-15.5 79.5q0 39 15 72t42 57.5t63.5 38.5t79.5 14q34 0 64 -10t54 -27t42 -38.5
t29 -45.5l-53 -29q-20 43 -55 66.5t-81 23.5q-26 0 -51 -8.5t-44.5 -24t-31 -38t-11.5 -50.5q0 -35 15.5 -59t40 -41.5t56.5 -30.5t65.5 -26t65.5 -29t56.5 -39.5t40 -56.5t15.5 -81q0 -44 -18 -81.5t-49.5 -65t-73 -43.5t-89.5 -16zM108 926l20 24l136 -94l137 94l20 -24
l-157 -152z" />
    <glyph glyph-name="scaron" unicode="&#x161;" horiz-adv-x="355" 
d="M174 -10q-55 0 -96 30.5t-58 84.5q5 1 9 3t9 4l10 4q12 4 27 11q11 -34 37 -55.5t62 -21.5q48 0 74.5 22.5t26.5 61.5q0 26 -16.5 42.5t-44.5 28.5l-81 35q-33 14 -59.5 38.5t-26.5 68.5q0 29 11 52t30 38.5t44 24t53 8.5q24 0 45 -7.5t38.5 -20t29.5 -28.5t18 -32
l-51 -26q-7 18 -27.5 36t-51.5 18t-55 -15.5t-24 -47.5q0 -23 18 -35t44 -23l77 -34q39 -17 64 -46t25 -75q0 -34 -12.5 -61t-34.5 -45.5t-51.5 -28t-62.5 -9.5zM27 686l20 24l136 -94l137 94l20 -24l-157 -152z" />
    <glyph glyph-name="Ydieresis" unicode="&#x178;" horiz-adv-x="541" 
d="M239 311l-229 409l53 30l206 -369l209 369l53 -30l-231 -408v-312h-61v311zM199 777q-17 0 -29.5 12.5t-12.5 29.5t12.5 29.5t29.5 12.5t29.5 -12.5t12.5 -29.5t-12.5 -29.5t-29.5 -12.5zM349 777q-17 0 -29.5 12.5t-12.5 29.5t12.5 29.5t29.5 12.5t29.5 -12.5
t12.5 -29.5t-12.5 -29.5t-29.5 -12.5z" />
    <glyph glyph-name="Zcaron" unicode="&#x17d;" horiz-adv-x="547" 
d="M435 670h-395l30 60h477l-436 -670h436v-60h-548zM138 916l20 24l136 -94l137 94l20 -24l-157 -152z" />
    <glyph glyph-name="zcaron" unicode="&#x17e;" horiz-adv-x="488" 
d="M344 400h-305l30 60h407l-340 -400h342v-60h-473zM104 686l20 24l136 -94l137 94l20 -24l-157 -152z" />
    <glyph glyph-name="florin" unicode="&#x192;" horiz-adv-x="195" 
d="M-38 -162q32 0 54 10t30 36q2 8 3.5 17.5t1.5 25.5v473h-41v60h41v174q0 19 1.5 32t4.5 24q14 46 52 70.5t92 24.5v-62q-32 0 -54 -10t-30 -36q-2 -8 -3.5 -17.5t-1.5 -25.5v-174h73v-60h-73v-473q0 -19 -1.5 -32t-4.5 -24q-14 -46 -52 -70.5t-92 -24.5v62z" />
    <glyph glyph-name="circumflex" unicode="&#x2c6;" horiz-adv-x="475" 
d="M78 559l156 151l157 -151l-20 -25l-137 94l-136 -94z" />
    <glyph glyph-name="caron" unicode="&#x2c7;" horiz-adv-x="472" 
d="M78 686l20 24l136 -94l137 94l20 -24l-157 -152z" />
    <glyph glyph-name="breve" unicode="&#x2d8;" horiz-adv-x="490" 
d="M245 534q-31 0 -56.5 10.5t-44 28t-28.5 40t-10 47.5h57q-1 -37 24 -56t58 -19t57.5 20.5t24.5 54.5h57q0 -21 -10 -43t-28 -40.5t-44 -30.5t-57 -12z" />
    <glyph glyph-name="dotaccent" unicode="&#x2d9;" horiz-adv-x="360" 
d="M181 534q-17 0 -29.5 12.5t-12.5 29.5t12.5 29.5t29.5 12.5t29.5 -12.5t12.5 -29.5t-12.5 -29.5t-29.5 -12.5z" />
    <glyph glyph-name="ring" unicode="&#x2da;" horiz-adv-x="360" 
d="M180 535q-38 0 -64 26t-26 64t26 64.5t64 26.5q19 0 35.5 -7t29 -19.5t19.5 -29t7 -35.5t-7 -35.5t-19.5 -28.5t-29 -19t-35.5 -7zM179 576q20 0 35 14.5t15 34.5t-15 35t-35 15t-34 -15t-14 -35t14 -34.5t34 -14.5z" />
    <glyph glyph-name="ogonek" unicode="&#x2db;" horiz-adv-x="340" 
d="M185 -194q-45 0 -75.5 20.5t-30.5 61.5q0 19 8 35.5t20 30.5t27.5 25.5t30.5 20.5h46q-10 -7 -22.5 -17.5t-23 -23.5t-18 -27.5t-7.5 -27.5t6 -21.5t15.5 -14t21.5 -8t23 -2.5t22.5 3t20.5 10v-48q-11 -7 -29 -12t-35 -5z" />
    <glyph glyph-name="tilde" unicode="&#x2dc;" horiz-adv-x="510" 
d="M82 573q8 11 17 23.5t21 23t28 17t37 6.5q26 0 45 -8.5t34.5 -18t29.5 -18t32 -8.5q22 0 37.5 15.5t26.5 32.5l41 -30q-19 -32 -44.5 -53t-67.5 -21q-21 0 -38 8.5t-33.5 18.5t-33 18.5t-36.5 8.5q-10 0 -20 -7.5t-18 -15.5q-10 -11 -19 -23z" />
    <glyph glyph-name="hungarumlaut" unicode="&#x2dd;" horiz-adv-x="470" 
d="M66 555l125 166l62 -35l-162 -151zM225 555l125 166l62 -35l-163 -151z" />
    <glyph glyph-name="pi" unicode="&#x3c0;" horiz-adv-x="492" 
d="M40 230q0 16 0.5 31.5t2.5 29.5q5 39 22 72t43 57t61 37t76 13q42 0 77 -13t61.5 -37t43.5 -57t22 -72q2 -14 2.5 -29.5t0.5 -31.5v-230h-61v230q0 11 -0.5 25t-2.5 26q-8 57 -45 93t-97 36t-97 -36t-45 -93q-2 -12 -2.5 -26t-0.5 -25v-230h-61v230z" />
    <glyph glyph-name="endash" unicode="&#x2013;" horiz-adv-x="393" 
d="M30 266h331v-62h-331v62z" />
    <glyph glyph-name="emdash" unicode="&#x2014;" horiz-adv-x="626" 
d="M30 266h563v-62h-563v62z" />
    <glyph glyph-name="quoteleft" unicode="&#x2018;" horiz-adv-x="163" 
d="M72 748l51 -6l-18 -250l-62 8z" />
    <glyph glyph-name="quoteright" unicode="&#x2019;" horiz-adv-x="168" 
d="M61 748l62 -8l-29 -248l-51 6z" />
    <glyph glyph-name="quotesinglbase" unicode="&#x201a;" horiz-adv-x="120" 
d="M49 72l62 -8l-29 -248l-51 6z" />
    <glyph glyph-name="quotedblleft" unicode="&#x201c;" horiz-adv-x="288" 
d="M72 748l51 -6l-18 -250l-62 8zM192 748l51 -6l-18 -250l-62 8z" />
    <glyph glyph-name="quotedblright" unicode="&#x201d;" horiz-adv-x="303" 
d="M61 748l62 -8l-29 -248l-51 6zM181 748l62 -8l-29 -248l-51 6z" />
    <glyph glyph-name="quotedblbase" unicode="&#x201e;" horiz-adv-x="278" 
d="M49 72l62 -8l-29 -248l-51 6zM179 72l62 -8l-29 -248l-51 6z" />
    <glyph glyph-name="dagger" unicode="&#x2020;" horiz-adv-x="485" 
d="M214 400h-193v60h193v270h61v-270h190v-60h-190v-600h-61v600z" />
    <glyph glyph-name="daggerdbl" unicode="&#x2021;" horiz-adv-x="485" 
d="M214 100h-193v60h193v240h-193v60h193v270h61v-270h190v-60h-190v-240h190v-60h-190v-300h-61v300z" />
    <glyph glyph-name="bullet" unicode="&#x2022;" horiz-adv-x="578" 
d="M288 239q-24 0 -45 9t-37 25t-25 37t-9 45t9 45t25 37t37 25t45 9t45 -9t37 -25t25 -37t9 -45t-9 -45t-25 -37t-37 -25t-45 -9z" />
    <glyph glyph-name="ellipsis" unicode="&#x2026;" horiz-adv-x="507" 
d="M84 -20q-19 0 -32 13t-13 32t13 32t32 13t32 -13t13 -32t-13 -32t-32 -13zM253 -20q-19 0 -32 13t-13 32t13 32t32 13t32 -13t13 -32t-13 -32t-32 -13zM422 -20q-19 0 -32 13t-13 32t13 32t32 13t32 -13t13 -32t-13 -32t-32 -13z" />
    <glyph glyph-name="perthousand" unicode="&#x2030;" horiz-adv-x="1267" 
d="M212 294q-41 0 -76 14t-60.5 39.5t-40.5 59.5t-15 75v8q0 40 15 74.5t41 60t61 40t75 14.5t75.5 -14.5t61 -39.5t40.5 -60t15 -75v-8q0 -40 -15 -74t-41 -59.5t-61 -40t-75 -14.5zM212 342q30 0 56 10.5t45.5 29.5t31 44.5t11.5 55.5v8q0 30 -11.5 56t-31 44.5
t-45.5 29.5t-56 11t-56.5 -11t-46 -29.5t-30.5 -44.5t-11 -56v-8q0 -30 11 -55.5t30.5 -44.5t46 -29.5t56.5 -10.5zM208 9l434 744l36 -19l-434 -743zM626 -10q-41 0 -76 14t-60.5 39.5t-40.5 59.5t-15 75v8q0 40 15 74.5t41 60t61 40t75 14.5t75.5 -14.5t61 -39.5t40.5 -60
t15 -75v-8q0 -40 -15 -74t-41 -59.5t-61 -40t-75 -14.5zM626 38q30 0 56 10.5t45.5 29.5t31 44.5t11.5 55.5v8q0 30 -11.5 56t-31 44.5t-45.5 29.5t-56 11t-56.5 -11t-46 -29.5t-30.5 -44.5t-11 -56v-8q0 -30 11 -55.5t30.5 -44.5t46 -29.5t56.5 -10.5zM1046 -10
q-41 0 -76 14t-60.5 39.5t-40.5 59.5t-15 75v8q0 40 15 74.5t41 60t61 40t75 14.5t75.5 -14.5t61 -39.5t40.5 -60t15 -75v-8q0 -40 -15 -74t-41 -59.5t-61 -40t-75 -14.5zM1046 38q30 0 56 10.5t45.5 29.5t31 44.5t11.5 55.5v8q0 30 -11.5 56t-31 44.5t-45.5 29.5t-56 11
t-56.5 -11t-46 -29.5t-30.5 -44.5t-11 -56v-8q0 -30 11 -55.5t30.5 -44.5t46 -29.5t56.5 -10.5z" />
    <glyph glyph-name="guilsinglleft" unicode="&#x2039;" horiz-adv-x="257" 
d="M20 230l166 239l51 -35l-141 -204l141 -204l-51 -35z" />
    <glyph glyph-name="guilsinglright" unicode="&#x203a;" horiz-adv-x="257" 
d="M71 -9l-51 35l141 204l-141 204l51 35l166 -239z" />
    <glyph glyph-name="fraction" unicode="&#x2044;" horiz-adv-x="186" 
d="M-134 9l393 680l36 -19l-393 -679z" />
    <glyph glyph-name="Euro" unicode="&#x20ac;" horiz-adv-x="892" 
d="M601 -10q-65 0 -124 20.5t-107 56.5t-83 86t-52 109h-205l29 61h164q-3 21 -3 44q0 14 1 28.5t3 28.5h-117l29 61h103q18 56 53 103t82.5 80.5t105 52.5t120.5 19q73 0 138 -23.5t116 -67.5l-38 -50q-43 36 -98.5 58.5t-118.5 22.5q-51 0 -96.5 -14.5t-84 -40
t-67.5 -61.5t-46 -79h275l-29 -61h-263q-3 -14 -4 -28.5t-1 -28.5q0 -23 3 -44h217l-28 -61h-175q16 -47 45 -86t67.5 -67t85.5 -43.5t100 -15.5q63 0 121.5 24t103.5 65l39 -49q-50 -45 -119 -72.5t-142 -27.5z" />
    <glyph glyph-name="trademark" unicode="&#x2122;" horiz-adv-x="756" 
d="M157 697h-107v33h246v-33h-106v-359h-33v359zM346 750l157 -269l159 269l44 -411l-33 -2l-34 307l-135 -228l-135 228l-31 -307l-33 2z" />
    <glyph glyph-name="partialdiff" unicode="&#x2202;" horiz-adv-x="438" 
d="M51 400h-41v60h41v164q0 35 12.5 64.5t34 51t50.5 33.5t62 12q44 0 76 -11.5t52 -30.5v-283h94v-60h-94v-400h-61v400h-38v60h38v248q-25 17 -68 17q-24 0 -42 -9t-30 -24t-18.5 -35t-6.5 -41v-616h-61v400z" />
    <glyph glyph-name="Delta" unicode="&#x2206;" horiz-adv-x="531" 
d="M20 0l213 661h67l211 -661h-491zM426 60l-160 511l-164 -511h324z" />
    <glyph glyph-name="summation" unicode="&#x2211;" horiz-adv-x="380" 
d="M50 400h-41v60h41v155q0 35 12.5 64.5t34 51t51 33.5t62.5 12q42 0 71.5 -5.5t45.5 -13.5q10 5 26.5 9t27.5 4v-65q-17 0 -30 -12t-13 -29v-664h-61v400h-73v60h73v205q0 13 1.5 21t6.5 19q-8 2 -26 7t-50 5q-24 0 -42 -9t-30.5 -24t-19 -35t-6.5 -41v-608h-61v400z" />
    <glyph glyph-name="minus" unicode="&#x2212;" horiz-adv-x="298" 
d="M30 265h239v-61h-239v61z" />
    <glyph glyph-name="radical" unicode="&#x221a;" horiz-adv-x="588" 
d="M144 400h-124v61h170l129 -390l191 578l58 -19l-210 -630h-79z" />
    <glyph glyph-name="infinity" unicode="&#x221e;" horiz-adv-x="800" 
d="M232 38q-41 0 -76 14t-60.5 39.5t-40.5 59.5t-15 75v8q0 40 15 74.5t41 60t61 40t75 14.5q56 0 100 -26t69 -70q25 43 69 69.5t98 26.5q40 0 75.5 -14.5t61 -39.5t40.5 -60t15 -75v-8q0 -40 -15 -74t-41 -59.5t-61 -40t-75 -14.5q-56 0 -100.5 25.5t-68.5 69.5
q-25 -43 -69 -69t-98 -26zM232 103q26 0 49 9.5t40.5 26t27.5 39t10 49.5v7q0 26 -10 49t-27.5 39.5t-40.5 26t-49 9.5t-49.5 -9.5t-40.5 -26t-27 -39.5t-10 -49v-7q0 -27 10 -49.5t27 -39t40.5 -26t49.5 -9.5zM568 103q26 0 49 9.5t40.5 26t27.5 39t10 49.5v7q0 26 -10 49
t-27.5 39.5t-40.5 26t-49 9.5t-49.5 -9.5t-40.5 -26t-27 -39.5t-10 -49v-8q0 -27 10 -49.5t27.5 -39t40.5 -25.5t49 -9z" />
    <glyph glyph-name="integral" unicode="&#x222b;" horiz-adv-x="195" 
d="M-38 -162q32 0 54 10t30 36q2 8 3.5 17.5t1.5 25.5v707q0 19 1.5 32t4.5 24q14 46 52 70.5t92 24.5v-62q-32 0 -54 -10t-30 -36q-2 -8 -3.5 -17.5t-1.5 -25.5v-707q0 -19 -1.5 -32t-4.5 -24q-14 -46 -52 -70.5t-92 -24.5v62z" />
    <glyph glyph-name="approxequal" unicode="&#x2248;" horiz-adv-x="578" 
d="M45 234q12 19 25 38t30 34t38 24.5t48 9.5q31 0 58 -16t51.5 -35t48.5 -35t48 -16q18 0 34 10.5t29.5 25.5t25 32.5t20.5 31.5l44 -31q-11 -21 -26 -43t-34 -40t-42 -30t-50 -12t-57 16t-58 35t-51.5 35t-38.5 16q-30 0 -52 -19.5t-46 -58.5zM45 394q12 19 25 38t30 34
t38 24.5t48 9.5q31 0 58 -16t51.5 -35t48.5 -35t48 -16q18 0 34 10.5t29.5 25.5t25 32.5t20.5 31.5l44 -31q-11 -21 -26 -43t-34 -40t-42 -30t-50 -12t-57 16t-58 35t-51.5 35t-38.5 16q-30 0 -52 -19.5t-46 -58.5z" />
    <glyph glyph-name="notequal" unicode="&#x2260;" horiz-adv-x="439" 
d="M51 400h-42v60h42v150q0 19 1.5 32t4.5 24q14 46 52 70.5t92 24.5q34 0 63.5 -6.5t52.5 -22.5q41 53 123 53v-62q-32 0 -54 -10t-30 -36q-2 -8 -3.5 -17.5t-1.5 -25.5v-174h73v-60h-73v-400h-61v400h-178v-400h-61v400zM290 460v174v23t2 19q-15 15 -38.5 19t-52.5 4
q-32 0 -54 -10t-30 -36q-2 -8 -3.5 -17.5t-1.5 -25.5v-150h178z" />
    <glyph glyph-name="lessequal" unicode="&#x2264;" horiz-adv-x="259" 
d="M20 61h219v-61h-219v61zM20 320l166 239l51 -35l-141 -204l141 -204l-51 -35z" />
    <glyph glyph-name="greaterequal" unicode="&#x2265;" horiz-adv-x="259" 
d="M73 81l-51 35l141 204l-141 204l51 35l166 -239zM239 0h-219v61h219v-61z" />
    <glyph glyph-name="lozenge" unicode="&#x25ca;" horiz-adv-x="620" 
d="M39 339l248 347h48l247 -349l-247 -347h-48zM506 338l-194 276l-195 -276l194 -276z" />
    <glyph glyph-name="apple" unicode="&#xf8ff;" horiz-adv-x="801" 
d="M781 359q0 -79 -30 -148.5t-81.5 -121t-120.5 -81.5t-148 -30t-148.5 30t-121 81.5t-81.5 121t-30 148.5t30 148t81.5 120.5t121 81.5t148.5 30t148 -30t120.5 -81.5t81.5 -120.5t30 -148zM611 581q-40 38 -92 60.5t-112 24.5l113 -363h1zM706 359q0 40 -10 77.5
t-28 70.5l-151 -429q42 17 76.5 45t59.5 64.5t39 80t14 91.5zM399 666q-59 0 -110.5 -21t-92.5 -58l93 -284h1zM403 423h-1l-111 -347q52 -20 110 -20t106 19zM137 513q-20 -34 -31 -73t-11 -81q0 -47 13.5 -90.5t38.5 -79.5t59 -64t75 -45z" />
    <glyph glyph-name="fi" unicode="&#xfb01;" horiz-adv-x="416" 
d="M51 400h-41v60h41v172q0 19 1.5 32t4.5 24q14 46 52 70.5t92 24.5t92 -24.5t52 -70.5q2 -8 5 -26t2 -37l-1 -45h-61v43q0 17 -1.5 32t-3.5 20q-8 26 -30 36t-54 10t-54 -10t-30 -36q-2 -8 -3.5 -17.5t-1.5 -25.5v-172h239v-460h-61v400h-178v-400h-61v400z" />
    <glyph glyph-name="fl" unicode="&#xfb02;" horiz-adv-x="415" 
d="M51 400h-41v60h41v173q0 19 1.5 32t4.5 24q14 46 52 70.5t92 24.5t92 -24.5t52 -70.5q3 -11 4.5 -24t1.5 -32v-633h-61v633q0 11 -1.5 23t-3.5 20q-8 26 -30 36t-54 10t-54 -10t-30 -36q-2 -8 -3.5 -17.5t-1.5 -25.5v-173h110v-60h-110v-400h-61v400z" />
    <glyph glyph-name="zero.oldstyle" horiz-adv-x="580" 
d="M290 -10q-51 0 -94.5 17.5t-76 49t-51 74.5t-18.5 94v10q0 49 19 92.5t51.5 75t76 50t93.5 18.5q51 0 94.5 -18t76 -49.5t51 -74.5t18.5 -94v-10q0 -50 -19 -92.5t-51.5 -74.5t-76.5 -50t-93 -18zM290 50q37 0 70 13.5t57.5 36.5t38.5 55t14 70v10q0 37 -14 69.5
t-38.5 56t-57.5 37t-70 13.5q-38 0 -70.5 -13.5t-57 -37t-38.5 -56t-14 -69.5v-10q0 -38 14 -70t38.5 -55t57 -36.5t70.5 -13.5z" />
    <glyph glyph-name="one.oldstyle" horiz-adv-x="271" 
d="M140 400h-100l30 60h131v-460h-61v400z" />
    <glyph glyph-name="two.oldstyle" horiz-adv-x="534" 
d="M65 48l221 119q35 19 60.5 35t42.5 32t25.5 33.5t8.5 38.5q0 15 -8.5 33.5t-25.5 34t-44.5 26t-64.5 10.5q-59 0 -107 -33t-68 -90l-54 29q28 69 88.5 111.5t140.5 42.5q51 0 89 -15t63.5 -38.5t38.5 -53t13 -57.5q0 -32 -9.5 -57.5t-30.5 -48t-54 -43.5t-81 -45
l-105 -52h290v-60h-429v48z" />
    <glyph glyph-name="three.oldstyle" horiz-adv-x="501" 
d="M280 -280q-80 0 -140.5 42.5t-88.5 111.5l54 29q20 -57 68 -90t107 -33q37 0 70 15t57.5 40t38.5 58.5t14 71.5q0 37 -13.5 67.5t-37 52.5t-55 33.5t-67.5 11.5h-54l30 60h21q21 0 40 9.5t33 25t22 36t8 42.5t-8.5 41.5t-23 34t-34 23t-41.5 8.5q-46 0 -73.5 -23.5
t-40.5 -62.5l-56 23q9 25 23.5 47.5t36 39t49 26.5t61.5 10q35 0 65.5 -13t53 -35.5t35.5 -53t13 -65.5q0 -40 -17.5 -78t-58.5 -59q34 -8 62 -27t47 -45.5t29.5 -59.5t10.5 -69q0 -50 -19 -94t-51.5 -78t-76.5 -53.5t-93 -19.5z" />
    <glyph glyph-name="four.oldstyle" horiz-adv-x="577" 
d="M420 -135h-380l441 627v-566h96l-30 -61h-66v-125h-61v125zM420 300l-263 -374h263v374z" />
    <glyph glyph-name="five.oldstyle" horiz-adv-x="560" 
d="M280 -280q-80 0 -140.5 41t-88.5 110l54 29q20 -57 68 -88.5t107 -31.5q37 0 70 14t57.5 38.5t38.5 57t14 70.5q0 37 -12.5 70t-35 57.5t-54 38.5t-68.5 14q-45 0 -74 -13t-45 -30h-53v364h347l-30 -61h-258v-234q22 13 53 23.5t60 10.5q51 0 93 -18.5t72.5 -51t47.5 -76
t17 -94.5q0 -50 -19 -93.5t-51.5 -76t-76.5 -51.5t-93 -19z" />
    <glyph glyph-name="six.oldstyle" horiz-adv-x="585" 
d="M283 -9q-51 0 -94.5 18.5t-76 51t-51 76t-18.5 94.5q0 38 10.5 69t27.5 63l194 384l54 -28l-141 -277q6 6 17.5 11.5t25 9.5t27.5 6t26 2q52 0 95.5 -18t75.5 -50t50 -76t18 -96q0 -50 -19 -93.5t-51.5 -76t-76.5 -51.5t-93 -19zM283 51q37 0 70 14t57.5 38.5t38.5 57
t14 70.5q0 39 -13.5 72t-37.5 57t-57 37.5t-72 13.5q-36 0 -68.5 -14t-57.5 -38.5t-39.5 -57.5t-14.5 -70q0 -38 14 -70.5t38.5 -57t57 -38.5t70.5 -14z" />
    <glyph glyph-name="seven.oldstyle" horiz-adv-x="436" 
d="M-7 -260l350 660h-353l30 60h426l-399 -748z" />
    <glyph glyph-name="eight.oldstyle" horiz-adv-x="560" 
d="M280 -10q-51 0 -94.5 18.5t-76 51t-51 76t-18.5 94.5q0 71 38.5 128t105.5 87q-35 22 -53 55t-18 73q0 35 13 65.5t35.5 53t53 35.5t65.5 13t65.5 -13t53 -35.5t35.5 -53t13 -65.5q0 -40 -18 -72.5t-53 -54.5q68 -29 106 -86.5t38 -129.5q0 -50 -19 -93.5t-51.5 -76
t-76.5 -51.5t-93 -19zM280 50q37 0 70 14t57.5 38.5t38.5 57t14 70.5q0 36 -13.5 68.5t-37 56.5t-55 38.5t-67.5 16.5h-14q-36 -2 -68 -16.5t-55 -38.5t-36.5 -56.5t-13.5 -68.5q0 -38 14 -70.5t38.5 -57t57 -38.5t70.5 -14zM284 470q43 2 73 30.5t30 72.5q0 22 -8.5 41.5
t-23 34t-34 23t-41.5 8.5t-41.5 -8.5t-34 -23t-23 -34t-8.5 -41.5q0 -44 29.5 -72.5t72.5 -30.5h9z" />
    <glyph glyph-name="nine.oldstyle" horiz-adv-x="566" 
d="M237 -258l143 278q-6 -6 -18 -11.5t-26 -9.5t-28 -6.5t-26 -2.5q-52 0 -95.5 18t-75.5 50t-50 76t-18 96q0 49 19 93t51.5 76.5t76 51.5t93.5 19q52 0 96 -18t76 -50t50 -76t18 -96q0 -37 -10 -68.5t-27 -63.5l-195 -384zM283 50q36 0 68.5 14t57.5 38.5t39.5 57
t14.5 70.5q0 39 -13.5 72t-37.5 57t-57 37.5t-72 13.5q-38 0 -70.5 -14t-57 -38.5t-38.5 -57.5t-14 -70q0 -39 13.5 -72t37.5 -57t57 -37.5t72 -13.5z" />
    </font>
</defs>
</svg>
